<svg width="228" height="114" viewBox="0 0 228 114" fill="none" xmlns="http://www.w3.org/2000/svg">
<rect width="33" height="12" transform="translate(16 12)" fill="white"/>
<path d="M26.6562 22.5498C26.6602 22.5498 26.6642 22.5439 26.6642 22.5439C26.696 22.5203 26.7279 22.4909 26.7558 22.4556C26.7518 22.4556 26.7478 22.4556 26.7438 22.4498C26.7159 22.4792 26.6841 22.5145 26.6562 22.5498Z" fill="#000091"/>
<path d="M31.0694 21.0629L30.9997 21.1229C31.0396 21.1129 31.0694 21.1029 31.0694 21.0629Z" fill="#000091"/>
<path fill-rule="evenodd" clip-rule="evenodd" d="M29.6426 22.5817C29.7704 22.4532 29.8983 22.3168 30.0261 22.1765H30.0222C30.2624 21.9038 30.4948 21.6428 30.7737 21.4051C30.8589 21.3272 30.9402 21.261 31.0177 21.2064C31.0291 21.195 31.0349 21.1779 31.0406 21.1612C31.0465 21.1438 31.0523 21.1268 31.0642 21.1168C31.009 21.1379 30.965 21.1712 30.9207 21.2047C30.8749 21.2394 30.8289 21.2742 30.7698 21.296C30.7466 21.296 30.7233 21.2727 30.7466 21.2493C30.8279 21.1908 30.9092 21.1285 30.9867 21.0662H30.9712C30.948 21.0662 30.948 21.0428 30.948 21.0194C30.6596 20.9736 30.4381 21.1708 30.2399 21.3473L30.2275 21.3584C30.1966 21.3739 30.1675 21.3585 30.1446 21.3464C30.133 21.3403 30.123 21.335 30.1152 21.335C29.9398 21.3938 29.7885 21.5022 29.6362 21.6114C29.4959 21.7119 29.3548 21.813 29.1933 21.8765V21.8298C29.1384 21.8487 29.0842 21.8734 29.0298 21.8981C28.9498 21.9345 28.8696 21.971 28.7865 21.9895C28.6349 22.0247 28.4943 22.0202 28.358 22.0158C28.3133 22.0143 28.2689 22.0129 28.2249 22.0129C27.9768 22.0375 27.7319 22.0906 27.4872 22.1437L27.4076 22.161C27.4037 22.1629 27.3998 22.1639 27.3959 22.1649C27.3921 22.1658 27.3882 22.1668 27.3843 22.1688C27.2371 22.2077 27.1016 22.2623 26.966 22.3402L26.9505 22.348C26.9452 22.3551 26.9398 22.3614 26.9349 22.3673C26.929 22.3743 26.9237 22.3806 26.9195 22.3869C26.873 22.4415 26.8304 22.4882 26.7646 22.5233C26.6673 22.5722 26.5832 22.6476 26.5005 22.7219C26.4647 22.754 26.429 22.7861 26.3927 22.8155C26.385 22.8233 26.3695 22.8272 26.3578 22.8272C26.2378 22.9441 26.1177 23.061 25.9937 23.1739C25.986 23.1817 25.9511 23.1856 25.924 23.1817C25.924 23.1817 25.9279 23.1817 25.9279 23.1778L25.9395 23.1545L25.9976 23.061C26.0092 23.0434 26.0199 23.0259 26.0305 23.0084C26.0412 22.9908 26.0518 22.9733 26.0635 22.9558C26.0944 22.909 26.1255 22.8622 26.1603 22.8194C26.168 22.8077 26.168 22.796 26.1603 22.7882C26.1525 22.7804 26.1409 22.7765 26.1293 22.7765C26.2416 22.6675 26.3733 22.5739 26.5089 22.4921V22.4882C26.4934 22.4921 26.4702 22.4804 26.4818 22.4649C26.4932 22.4506 26.5024 22.4342 26.5112 22.4188L26.5205 22.4025C26.5225 22.3986 26.5234 22.3957 26.5244 22.3928C26.5254 22.3899 26.5263 22.3869 26.5283 22.383C26.5263 22.3791 26.5234 22.3762 26.5205 22.3733C26.5176 22.3704 26.5147 22.3675 26.5128 22.3636L26.4893 22.3791C26.4612 22.3974 26.4324 22.4163 26.4082 22.4376C26.3911 22.4523 26.3751 22.4725 26.3588 22.4932C26.3232 22.5382 26.2857 22.5856 26.23 22.5856C26.2261 22.5856 26.2068 22.5856 26.1952 22.5817C26.1835 22.5817 26.1758 22.5778 26.1719 22.5739C26.1719 22.572 26.1719 22.571 26.1724 22.5705C26.1729 22.57 26.1738 22.57 26.1758 22.57C26.1758 22.57 26.1797 22.5662 26.1797 22.5623C26.1797 22.5623 26.1797 22.5584 26.1835 22.5584C26.1855 22.5545 26.1874 22.5515 26.1893 22.5486C26.1913 22.5457 26.1932 22.5428 26.1952 22.5389C26.1971 22.535 26.199 22.5321 26.201 22.5291C26.2029 22.5262 26.2048 22.5233 26.2068 22.5194C26.2087 22.5175 26.2097 22.5145 26.2106 22.5116C26.2116 22.5087 26.2126 22.5058 26.2145 22.5038L26.2189 22.4958C26.2227 22.4889 26.2273 22.4808 26.23 22.4726C26.2319 22.4688 26.2339 22.4658 26.2358 22.4629C26.2378 22.46 26.2397 22.4571 26.2416 22.4532C26.2474 22.4454 26.2523 22.4366 26.2571 22.4278C26.262 22.4191 26.2668 22.4103 26.2726 22.4025C26.2765 22.3947 26.2804 22.3869 26.2881 22.3791C26.292 22.3713 26.2959 22.3645 26.2997 22.3577C26.3036 22.3509 26.3075 22.3441 26.3114 22.3363C26.323 22.3168 26.3114 22.3012 26.2959 22.2973C26.3385 22.2428 26.3888 22.196 26.4508 22.161H26.4431C26.4965 22.1341 26.5515 22.1026 26.6062 22.0713C26.6384 22.0528 26.671 22.0341 26.7026 22.0168C26.7142 22.0051 26.7258 21.9934 26.7413 21.9856C26.6135 22.0285 26.4973 22.0869 26.385 22.1649C26.385 22.1649 26.354 22.1765 26.3462 22.1843C26.3462 22.1843 26.323 22.1921 26.292 22.1649C26.2881 22.161 26.2881 22.1571 26.2881 22.1493C26.3016 22.1222 26.3293 22.1043 26.3594 22.0849C26.3812 22.0708 26.4041 22.056 26.4237 22.0363C26.4469 22.0363 26.4663 22.0363 26.4663 22.0597C26.9124 21.7099 27.4625 21.6289 28.0144 21.5477C28.3539 21.4978 28.6941 21.4478 29.0112 21.335C29.0441 21.3116 29.078 21.2892 29.1119 21.2668C29.1458 21.2444 29.1797 21.222 29.2126 21.1986C29.2691 21.1751 29.3198 21.1348 29.3734 21.0922C29.4263 21.0501 29.4822 21.0056 29.5496 20.9727C29.7278 20.8363 29.8634 20.6805 29.9331 20.4506C29.9331 20.4272 29.9099 20.4038 29.9099 20.4038C29.6155 20.7194 29.2785 20.9688 28.9182 21.1519C28.5747 21.3331 28.2067 21.36 27.8423 21.3866C27.7054 21.3966 27.569 21.4065 27.4347 21.4246C27.4579 21.3778 27.5044 21.3779 27.547 21.3779C27.547 21.3225 27.5735 21.2987 27.6075 21.2682C27.6166 21.26 27.6263 21.2514 27.6361 21.2415H27.702C27.7136 21.2415 27.7194 21.2298 27.7252 21.2181C27.731 21.2064 27.7368 21.1947 27.7484 21.1947C27.7949 21.1947 27.8608 21.1714 27.8375 21.1714C27.802 21.1257 27.7504 21.1438 27.6934 21.1637C27.6386 21.1829 27.5789 21.2038 27.5238 21.1714C27.5443 21.1489 27.5504 21.1219 27.556 21.0974C27.5621 21.0708 27.5675 21.0471 27.5896 21.035H27.6787C27.6787 20.9882 27.7252 20.9454 27.7252 20.9454C27.9272 20.8239 28.1223 20.7179 28.3137 20.6138C28.4416 20.5443 28.568 20.4756 28.6936 20.4038C28.6682 20.4038 28.6456 20.4143 28.6238 20.4244C28.589 20.4406 28.5558 20.4559 28.5154 20.4272C28.5386 20.4272 28.5386 20.4107 28.5386 20.3941C28.5386 20.3775 28.5386 20.361 28.5619 20.361C28.7072 20.3222 28.8365 20.2592 28.9686 20.195C29.0619 20.1496 29.1565 20.1036 29.2591 20.0649C29.2287 20.0649 29.2005 20.0731 29.173 20.0811C29.1201 20.0964 29.0699 20.111 29.0112 20.0649C29.0266 20.0571 29.039 20.0473 29.0513 20.0375C29.076 20.0178 29.1002 19.9986 29.1468 19.9986V19.9324C29.1468 19.909 29.17 19.909 29.1933 19.909C29.17 19.909 29.1468 19.8857 29.1468 19.8857C29.1591 19.8609 29.1833 19.8558 29.2103 19.8501C29.2343 19.8451 29.2605 19.8396 29.2824 19.8194C29.2591 19.8194 29.2165 19.8194 29.2165 19.796C29.2824 19.7064 29.3947 19.6831 29.507 19.6597C29.4954 19.6363 29.4731 19.6363 29.4538 19.6363C29.4344 19.6363 29.4179 19.6363 29.4179 19.6129C29.4179 19.5896 29.4412 19.5896 29.4644 19.5896H29.4179C29.3815 19.5712 29.3879 19.5385 29.3924 19.5158C29.3936 19.5096 29.3947 19.5041 29.3947 19.4999C29.4857 19.3927 29.5156 19.2662 29.5454 19.1404C29.5599 19.0788 29.5745 19.0173 29.5961 18.9584C29.5729 18.9584 29.5496 18.9584 29.5496 18.935C29.3318 19.1767 28.9866 19.2683 28.6587 19.3554L28.6277 19.3636H28.5154C28.4031 19.4103 28.2443 19.4103 28.1319 19.3402C28.0785 19.3122 28.0404 19.2771 27.9993 19.2393C27.9718 19.214 27.9429 19.1875 27.9073 19.161C27.7252 19.048 27.547 18.9584 27.3456 18.8883C26.7839 18.709 26.199 18.6155 25.6141 18.6389C25.7775 18.5491 25.9509 18.5133 26.1266 18.4771C26.2176 18.4584 26.3093 18.4395 26.4004 18.4129C26.458 18.396 26.515 18.3785 26.5716 18.3611C26.8929 18.2626 27.2046 18.1671 27.547 18.187C27.5022 18.1711 27.4448 18.1768 27.392 18.1821C27.3672 18.1846 27.3434 18.187 27.3224 18.187C27.0634 18.1677 26.8019 18.2253 26.529 18.2855C26.4712 18.2982 26.4129 18.3111 26.354 18.3233C26.2471 18.3456 26.1455 18.3775 26.0437 18.4095C25.9315 18.4448 25.8191 18.4801 25.6993 18.5025C25.6474 18.5205 25.6056 18.551 25.565 18.5807C25.4996 18.6285 25.437 18.6743 25.3391 18.6623V18.5922C25.5638 18.3194 25.8349 18.0506 26.1952 18.0272C26.5434 17.9705 26.8717 18.0109 27.2142 18.053C27.2718 18.0601 27.3297 18.0673 27.3882 18.074C27.669 18.0966 27.9317 18.1592 28.2148 18.2267L28.2443 18.2337C28.3062 18.2337 28.3411 18.2883 28.3748 18.3411C28.4023 18.384 28.429 18.4258 28.4689 18.4363C28.5241 18.4553 28.5792 18.4589 28.6344 18.4624C28.7148 18.4676 28.7952 18.4728 28.8756 18.5259C28.8756 18.5102 28.873 18.4949 28.8704 18.4798C28.8653 18.4499 28.8602 18.4206 28.8756 18.3896C28.9256 18.3393 28.9829 18.3528 29.0393 18.3661C29.0834 18.3764 29.127 18.3867 29.1662 18.3662C29.289 18.29 29.1738 18.1729 29.0585 18.0558C29.0029 17.9993 28.9472 17.9428 28.9182 17.8909C28.9182 17.8675 28.9415 17.8441 28.9415 17.8441C28.9924 17.8897 29.0398 17.9369 29.0867 17.9837C29.2043 18.1008 29.3194 18.2153 29.4799 18.2961C29.5922 18.3428 29.8634 18.409 29.8169 18.2727C29.7373 18.0961 29.6014 17.9429 29.4642 17.7883C29.4077 17.7246 29.351 17.6607 29.2979 17.5948V17.5052C29.2625 17.5052 29.2541 17.4917 29.2435 17.4749C29.2402 17.4696 29.2367 17.464 29.232 17.4584V17.3688C29.1752 17.339 29.1625 17.2918 29.1497 17.2443C29.1424 17.2173 29.1351 17.1902 29.1197 17.1662C29.0808 17.1033 29.0781 17.0259 29.0752 16.946C29.0729 16.8825 29.0705 16.8175 29.0499 16.7571C29.0035 16.6207 28.9841 16.5078 28.9609 16.3714C28.9356 16.2319 28.9079 16.0985 28.8807 15.9679C28.8328 15.7374 28.7866 15.5157 28.7594 15.2844C28.7236 14.9538 28.8905 14.6743 29.0612 14.3885C29.1118 14.3037 29.1627 14.2185 29.2088 14.1312C29.3676 13.8584 29.5458 13.5896 29.8401 13.4065C29.9044 13.1405 30.0791 12.919 30.253 12.6985L30.2662 12.6818C30.4379 12.4679 30.7245 12.3371 30.9357 12.2408L30.9596 12.2299C31.2734 12.0896 31.5561 12 31.56 12H16V23.996H27.0396C27.3348 23.782 27.6283 23.6469 27.9775 23.4862C28.1369 23.4129 28.3079 23.3342 28.496 23.2402C28.5359 23.2201 28.5832 23.1968 28.6357 23.171C28.951 23.0159 29.4534 22.7687 29.6426 22.5817ZM26.1396 20.9633C26.0958 20.9677 26.0494 20.9723 26.0669 20.9372C26.0832 20.8583 26.1639 20.8347 26.2428 20.8116C26.2765 20.8017 26.31 20.7919 26.3378 20.7779L26.3505 20.7714L26.3598 20.7664C26.4035 20.7432 26.457 20.7148 26.4965 20.7313C26.5231 20.7692 26.5561 20.779 26.5881 20.7884C26.612 20.7955 26.6353 20.8024 26.6551 20.8207C26.5714 20.9047 26.4737 20.913 26.3747 20.9214C26.3089 20.9269 26.2425 20.9326 26.1791 20.9605C26.1678 20.9605 26.1538 20.9619 26.1396 20.9633ZM22.7126 20.4154C22.7126 20.4388 22.7359 20.4622 22.7359 20.4622C23.2782 19.8505 23.7701 19.3284 24.4673 18.8959C24.486 18.8881 24.4791 18.8979 24.4698 18.9109C24.4561 18.9302 24.4373 18.9567 24.4906 18.9427C24.7214 18.8901 24.8251 18.6923 24.9259 18.5C24.952 18.4502 24.9779 18.4008 25.0058 18.3544C25.1115 18.1823 25.2618 18.0721 25.4132 17.9611C25.5223 17.881 25.6321 17.8004 25.7262 17.696C25.7262 17.7193 25.7262 17.7427 25.703 17.7661C25.7262 17.7895 25.7495 17.7895 25.7727 17.7895C25.8136 17.7586 25.8582 17.7459 25.901 17.7336C25.9555 17.718 26.007 17.7033 26.0439 17.6531C25.8657 17.583 25.6372 17.5596 25.459 17.6297C24.9864 17.8557 24.5836 18.218 24.2001 18.6271C23.9677 18.8726 23.7275 19.1024 23.4331 19.2622C23.2317 19.6674 23.007 20.0297 22.7126 20.4154ZM24.6037 18.9664C24.5916 18.9908 24.5794 19.0035 24.5678 19.0156C24.5573 19.0266 24.5471 19.0372 24.5379 19.0557C24.5147 19.1023 24.4915 19.1217 24.4489 19.145C24.4257 19.145 24.4025 19.145 24.4025 19.1217C24.4257 19.0324 24.4915 18.9431 24.5805 18.9198C24.6037 18.9237 24.6037 18.947 24.6037 18.9664ZM25.5942 22.4264C25.6136 22.4069 25.6368 22.3835 25.6484 22.3601C25.6677 22.3134 25.5478 22.3251 25.5284 22.3368C25.5109 22.3509 25.4997 22.365 25.4862 22.3821L25.482 22.3874C25.4659 22.406 25.447 22.4232 25.4278 22.4406C25.4148 22.4525 25.4016 22.4644 25.3891 22.477C25.3349 22.5316 25.2808 22.5861 25.2227 22.6368C25.184 22.6718 25.3078 22.6874 25.3349 22.664C25.3659 22.6407 25.393 22.6134 25.4201 22.5861C25.4304 22.5861 25.4407 22.5844 25.4476 22.5832L25.4523 22.5825L25.4549 22.5822C25.5191 22.5607 25.5668 22.516 25.6132 22.4726L25.6252 22.4614C25.6407 22.4459 25.6213 22.4303 25.5942 22.4264ZM25.244 22.173C25.2436 22.1731 25.2433 22.1732 25.243 22.1734C25.2426 22.1739 25.2426 22.1749 25.2426 22.1768C25.2188 22.1931 25.1953 22.2097 25.1719 22.2263C25.1114 22.2691 25.0512 22.3117 24.9869 22.3483C24.9255 22.3829 24.8625 22.4128 24.7989 22.4429C24.7623 22.4603 24.7255 22.4778 24.6886 22.4963C24.6886 22.4963 24.6886 22.4924 24.6848 22.4924C24.677 22.4807 24.6615 22.4768 24.646 22.4846C24.5608 22.5314 24.4872 22.5937 24.4214 22.6599C24.4097 22.6677 24.3981 22.6794 24.3904 22.6911L24.3555 22.7262V22.7301C24.34 22.7457 24.3245 22.7612 24.3052 22.7846C24.3011 22.7887 24.298 22.7927 24.2951 22.7966C24.2895 22.8039 24.2843 22.8107 24.2742 22.8158C24.2587 22.8236 24.2199 22.8236 24.2238 22.8002V22.7963C24.2122 22.8041 24.1967 22.8119 24.1851 22.8158C24.1793 22.8197 24.1735 22.8226 24.1677 22.8255C24.1618 22.8284 24.156 22.8314 24.1502 22.8353C24.1463 22.8314 24.1386 22.8314 24.1347 22.8314C24.1309 22.8314 24.1231 22.8314 24.1192 22.8353C24.1102 22.8431 24.1012 22.8504 24.0921 22.8578C24.074 22.8725 24.056 22.8872 24.0379 22.9054C23.9914 22.9483 23.9488 22.995 23.9062 23.0457C23.9062 23.0457 23.9062 23.0495 23.9023 23.0495C23.9023 23.0515 23.9013 23.0525 23.9004 23.0534C23.8994 23.0544 23.8984 23.0554 23.8984 23.0573L23.8907 23.0651C23.8892 23.0666 23.8883 23.0681 23.8875 23.0694C23.8863 23.0714 23.8853 23.0729 23.8829 23.0729L23.8791 23.0768C23.8752 23.0846 23.8713 23.0924 23.8636 23.1002C23.8597 23.1041 23.852 23.108 23.8442 23.108C23.8403 23.1041 23.8365 23.1002 23.8365 23.0963C23.8345 23.0944 23.8336 23.0924 23.8326 23.0905C23.8316 23.0885 23.8307 23.0866 23.8287 23.0846C23.8248 23.0788 23.8219 23.0729 23.819 23.0671C23.8161 23.0612 23.8132 23.0554 23.8094 23.0495V23.0457C23.8094 23.0437 23.8084 23.0418 23.8074 23.0398C23.8064 23.0379 23.8055 23.0359 23.8055 23.034L23.8752 22.9521L23.8791 22.9483C23.8829 22.9444 23.8868 22.9395 23.8907 22.9346C23.8946 22.9298 23.8984 22.9249 23.9023 22.921C23.9081 22.9132 23.9149 22.9054 23.9217 22.8976C23.9285 22.8898 23.9352 22.882 23.9411 22.8742C23.943 22.8703 23.9449 22.8674 23.9469 22.8645C23.9488 22.8616 23.9507 22.8586 23.9527 22.8547C23.9759 22.8236 23.9992 22.7924 24.0224 22.7573V22.7534C24.0263 22.7496 24.0301 22.7457 24.0301 22.7379C24.0418 22.7223 24.0534 22.7067 24.0611 22.6911L24.0844 22.6444V22.6405L24.0882 22.6366C24.0882 22.6346 24.0892 22.6336 24.0902 22.6327C24.0912 22.6317 24.0921 22.6307 24.0921 22.6288C24.096 22.619 24.0999 22.6103 24.1037 22.6015C24.1076 22.5928 24.1115 22.584 24.1154 22.5742V22.5703L24.1192 22.5547C24.1212 22.5509 24.1221 22.547 24.1231 22.5431C24.1241 22.5392 24.125 22.5353 24.127 22.5314V22.5275C24.1289 22.5216 24.1299 22.5158 24.1309 22.5099C24.1318 22.5041 24.1328 22.4983 24.1347 22.4924C24.1347 22.4885 24.1347 22.4807 24.1309 22.4768C24.1541 22.434 24.1851 22.395 24.2199 22.356C24.218 22.356 24.2161 22.357 24.2141 22.358C24.213 22.3586 24.2119 22.3591 24.2108 22.3595C24.21 22.3598 24.2092 22.3599 24.2083 22.3599C24.1911 22.3708 24.1762 22.3852 24.1611 22.4C24.1491 22.4117 24.1369 22.4236 24.1231 22.434C24.0999 22.4535 24.0534 22.4223 24.0844 22.3989C24.1037 22.3833 24.1192 22.3677 24.1347 22.3522C24.1347 22.3522 24.1347 22.3483 24.1386 22.3483C24.154 22.3343 24.1689 22.3184 24.1838 22.3025C24.2064 22.2784 24.2292 22.254 24.2548 22.2353C24.2819 22.2158 24.3013 22.2002 24.3245 22.1807C24.3284 22.1768 24.3323 22.1729 24.3362 22.1729C24.3516 22.1535 24.3671 22.134 24.3865 22.1145C24.3865 22.1145 24.3904 22.1145 24.3904 22.1106C24.5234 21.9816 24.7103 21.9361 24.9011 21.8896C25.0214 21.8603 25.1433 21.8307 25.2542 21.7794C25.3168 21.7534 25.3866 21.7636 25.4556 21.7738C25.5104 21.7818 25.5647 21.7898 25.6144 21.7794C25.6803 21.7794 25.75 21.7794 25.8158 21.8262C25.6627 21.9077 25.5165 22.001 25.3719 22.0933C25.33 22.12 25.2882 22.1467 25.2464 22.1729C25.2454 22.1729 25.2446 22.1729 25.244 22.173ZM25.7281 20.5851C25.7099 20.5872 25.6982 20.5885 25.7082 20.5986C25.7741 20.6649 25.9097 20.6415 26.0026 20.5909C26.0685 20.5441 26.1382 20.5441 26.2273 20.5441C26.2505 20.5441 26.2505 20.5012 26.2505 20.4779C26.3164 20.5012 26.3629 20.5012 26.4287 20.5012C26.9671 20.3883 27.4862 20.2753 27.982 20.0259C27.4803 19.6383 26.8618 19.4656 26.256 19.2965C26.1555 19.2684 26.0554 19.2405 25.9561 19.2116C25.978 19.2116 25.9998 19.2189 26.0217 19.2262C26.066 19.241 26.1109 19.2559 26.1576 19.2116C26.0961 19.1626 26.0277 19.1532 25.9599 19.144C25.9038 19.1363 25.8482 19.1286 25.7973 19.0987C25.8026 19.0987 25.809 19.0999 25.8158 19.1012C25.839 19.1057 25.8685 19.1114 25.8864 19.0753C25.7688 19.0161 25.6511 18.996 25.5323 18.9757C25.4712 18.9653 25.4098 18.9548 25.348 18.9389C25.4603 18.9155 25.5301 18.8259 25.5301 18.7129C25.5301 18.6896 25.4836 18.6896 25.4603 18.6896C25.1931 18.8259 25.011 19.0753 24.8987 19.3675C24.9999 19.4271 25.1091 19.4202 25.2161 19.4134C25.2769 19.4096 25.3369 19.4058 25.3945 19.4142C25.3437 19.4625 25.2703 19.4756 25.1997 19.4882C25.1734 19.4929 25.1475 19.4975 25.1233 19.5038C25.0536 19.5194 24.9878 19.5701 25.011 19.6168C25.0265 19.6363 25.042 19.6441 25.0614 19.648C25.011 19.6636 24.9645 19.687 24.9219 19.7298C24.9857 19.78 25.0514 19.7703 25.1163 19.7608C25.1421 19.757 25.1677 19.7532 25.1931 19.7532C25.1931 19.7815 25.2116 19.7911 25.2309 19.8011C25.2409 19.8062 25.251 19.8115 25.2589 19.8194C25.1466 19.8623 25.0575 19.9558 25.0342 20.022C25.0065 20.0895 24.9552 20.1334 24.9044 20.1768C24.8701 20.2062 24.8361 20.2353 24.8096 20.2714V20.3415C24.7348 20.4078 24.6578 20.4671 24.582 20.5255C24.4262 20.6455 24.2748 20.7621 24.155 20.9298C24.1782 20.9298 24.1782 20.9532 24.1782 20.9766C24.1568 21.0089 24.1263 21.0313 24.0974 21.0525C24.0636 21.0774 24.0319 21.1006 24.0194 21.1363C24.0194 21.1597 24.0194 21.1831 24.0426 21.1831C24.1848 21.1361 24.3077 21.057 24.4283 20.9794C24.5377 20.9091 24.6452 20.84 24.7631 20.7973C24.8595 20.7742 24.9434 20.7305 25.0253 20.6878C25.0948 20.6516 25.1628 20.6162 25.2357 20.5947C25.2918 20.5831 25.3538 20.5665 25.4158 20.5499C25.4778 20.5334 25.5397 20.5168 25.5959 20.5051C25.5959 20.5285 25.5959 20.5519 25.6192 20.5519H25.7973C25.7864 20.5784 25.7518 20.5824 25.7281 20.5851Z" fill="#000091"/>
<path d="M48.9999 12H36.0965C36.0965 12 36.1199 12.0039 36.2175 12.0546C36.3228 12.1092 36.4593 12.1834 36.5412 12.2263C36.7089 12.3121 36.8689 12.4213 36.9742 12.5891C37.021 12.6554 37.0873 12.7919 37.0444 12.8817C36.9976 12.9948 36.9742 13.1782 36.8611 13.2211C36.7246 13.2913 36.5451 13.2913 36.3852 13.2679C36.2955 13.2679 36.2058 13.2445 36.1121 13.2211C36.4515 13.3576 36.7714 13.5176 36.9976 13.8336C37.021 13.8804 37.1107 13.8999 37.2004 13.8999C37.2238 13.8999 37.2238 13.9467 37.2238 13.9662C37.177 14.013 37.1341 14.0364 37.1575 14.1027H37.2238C37.337 14.0559 37.3135 13.8296 37.4735 13.8999C37.5866 13.9662 37.6334 14.1261 37.5632 14.2393C37.4735 14.329 37.3838 14.3992 37.2901 14.4655C37.2667 14.5124 37.2667 14.5787 37.2901 14.6255C37.3565 14.7152 37.3799 14.8049 37.4033 14.8986C37.4735 15.0585 37.493 15.238 37.5632 15.3979C37.6529 15.7373 37.7426 16.0767 37.7231 16.42C37.7231 16.5995 37.6334 16.7594 37.6997 16.9428C37.7465 17.1222 37.8596 17.2588 37.9494 17.4187C38.0391 17.5553 38.1288 17.645 38.199 17.7815C38.3355 18.0078 38.5852 18.2341 38.472 18.5072C38.4057 18.6671 38.1561 18.6437 37.9962 18.7334C37.8596 18.8466 37.9728 19.0299 38.043 19.143C38.1561 19.3459 37.9065 19.4824 37.7465 19.5527C37.7933 19.6229 37.883 19.5995 37.9065 19.6424C37.9299 19.7555 38.043 19.8218 37.9728 19.9389C37.883 20.0754 37.61 20.1417 37.7465 20.3485C37.8362 20.5085 37.7777 20.684 37.7231 20.8479C37.6568 21.0507 37.4735 21.1404 37.3135 21.1873C37.177 21.2341 37.0171 21.2341 36.8845 21.2107C36.8377 21.1873 36.7948 21.1638 36.748 21.1638C36.3618 21.117 35.9756 21.0078 35.5934 21.0078C35.4802 21.0312 35.3671 21.0507 35.2774 21.0975C35.176 21.1717 35.0824 21.2536 35.0044 21.3394C35.0044 21.3394 35.0044 21.3394 35.0005 21.3433C34.9849 21.3628 34.9654 21.3784 34.9497 21.3979C34.9419 21.4096 34.9302 21.4213 34.9224 21.433C34.9146 21.4408 34.9107 21.4486 34.9029 21.4564C34.8366 21.5384 34.7781 21.6281 34.7235 21.7178C34.7196 21.7256 34.7157 21.7295 34.7118 21.7334C34.7079 21.7451 34.7001 21.7529 34.6923 21.7646C34.6182 21.9012 34.5636 22.0416 34.5207 22.1821C34.3646 22.7009 34.4349 23.1456 34.5441 23.2549C34.5753 23.2861 35.293 23.5085 35.7923 23.7308C36.0263 23.8362 36.1902 23.9142 36.3267 24H48.996V12H48.9999Z" fill="#E1000F"/>
<path d="M36.8631 16.3752C36.9526 16.3985 37.0888 16.3985 37.0888 16.4453C37.0421 16.6245 36.7736 16.6713 36.6375 16.8544H36.5674C36.5013 16.9011 36.5208 17.0141 36.4546 17.0141C36.3885 16.9907 36.3185 17.0141 36.2523 17.0375C36.3418 17.1271 36.4546 17.1972 36.5908 17.1739C36.6141 17.1739 36.6569 17.2206 36.6569 17.2635C36.6569 17.2635 36.6803 17.2635 36.7036 17.2401C36.727 17.2401 36.7503 17.2401 36.7503 17.2635V17.3531C36.6842 17.4427 36.5674 17.3998 36.478 17.4193C36.6608 17.4661 36.8398 17.4661 36.9993 17.4193C37.1355 17.3726 36.9993 17.1466 37.0888 17.0336C37.0421 17.0336 37.0888 16.9635 37.0421 16.9635C37.0888 16.9167 37.1316 16.8505 37.1782 16.8271C37.2249 16.8271 37.2911 16.8037 37.3144 16.757C37.3144 16.7102 37.2249 16.6907 37.2444 16.644C37.3806 16.5544 37.4934 16.418 37.4467 16.2817C37.4233 16.2115 37.2444 16.2115 37.1316 16.1687C37.0187 16.1258 36.8826 16.1687 36.7464 16.192C36.6336 16.192 36.5208 16.2622 36.4079 16.2817C36.2484 16.3284 36.1123 16.418 35.98 16.5076C36.1395 16.4414 36.2951 16.418 36.478 16.3713C36.6141 16.3752 36.727 16.344 36.8631 16.3752" fill="#808080"/>
<path d="M17.236 39H18.94V32.976L20.812 36.12H22.012L23.884 32.976V39H25.588V30.6H23.464L21.412 34.128L19.36 30.6H17.236V39ZM28.1124 39H29.8164V30.6H28.1124V39ZM32.3443 39H34.0483V32.928L37.8043 39H39.9883V30.6H38.2843V36.672L34.5283 30.6H32.3443V39ZM42.5176 39H44.2216V30.6H42.5176V39ZM45.9934 37.836C46.7374 38.724 47.6854 39.24 49.1014 39.24C50.6494 39.24 51.8734 38.292 51.8974 36.708C51.8974 33.828 48.0814 34.26 48.0814 32.736C48.0814 32.232 48.4774 31.848 49.0774 31.848C49.7134 31.848 50.2654 32.268 50.7574 32.904L52.0054 31.776C51.2854 30.924 50.3254 30.36 49.0654 30.36C47.4574 30.36 46.3534 31.464 46.3534 32.796C46.3534 35.64 50.1694 35.22 50.1694 36.768C50.1694 37.368 49.7614 37.728 49.0894 37.728C48.4054 37.728 47.7334 37.344 47.2294 36.696L45.9934 37.836ZM52.9415 32.148H55.5335V39H57.2375V32.148H59.8295V30.6H52.9415V32.148ZM63.1982 29.88H64.7582L63.4022 28.26H61.6502L63.1982 29.88ZM61.5062 39H66.4022V37.584H63.2102V35.424H65.9222V34.008H63.2102V32.016H66.4022V30.6H61.5062V39ZM68.5622 39H70.2662V35.604H71.1422L73.3862 39H75.3902L72.7622 35.28C73.6262 34.884 74.1182 34.128 74.1182 33.108C74.1182 31.548 72.9782 30.6 71.1302 30.6H68.5622V39ZM71.2262 32.016C71.9462 32.016 72.3662 32.448 72.3662 33.084C72.3662 33.768 71.9462 34.188 71.2262 34.188H70.2662V32.016H71.2262ZM76.6496 39H81.5456V37.584H78.3536V35.424H81.0656V34.008H78.3536V32.016H81.5456V30.6H76.6496V39ZM87.0001 39H90.3001C92.9641 39 94.7641 37.068 94.7641 34.8C94.7641 32.532 92.9641 30.6 90.3001 30.6H87.0001V39ZM90.3241 32.148C91.8841 32.148 93.0121 33.3 93.0121 34.8C93.0121 36.288 91.8841 37.452 90.3241 37.452H88.7041V32.148H90.3241ZM96.5874 39H101.483V37.584H98.2914V35.424H101.003V34.008H98.2914V32.016H101.483V30.6H96.5874V39ZM106.938 39H111.834V37.452H108.642V30.6H106.938V39ZM113.831 34.056L114.011 30.6H112.307L112.499 34.056H113.831ZM119.274 29.88L120.834 28.26H119.082L117.726 29.88H119.274ZM116.07 39H120.966V37.584H117.774V35.424H120.486V34.008H117.774V32.016H120.966V30.6H116.07V39ZM126.682 37.644C125.098 37.644 123.97 36.408 123.97 34.8C123.97 33.192 125.098 31.956 126.682 31.956C127.642 31.956 128.398 32.424 128.878 33.108L130.222 32.064C129.454 31.044 128.206 30.36 126.682 30.36C124.03 30.36 122.218 32.4 122.218 34.8C122.218 37.2 124.03 39.24 126.682 39.24C128.206 39.24 129.454 38.568 130.222 37.524L128.878 36.492C128.398 37.176 127.642 37.644 126.682 37.644ZM135.566 30.36C132.914 30.36 131.102 32.4 131.102 34.8C131.102 37.2 132.914 39.24 135.566 39.24C138.206 39.24 140.018 37.2 140.018 34.8C140.018 32.4 138.206 30.36 135.566 30.36ZM135.566 37.644C133.982 37.644 132.854 36.408 132.854 34.8C132.854 33.192 133.982 31.956 135.566 31.956C137.138 31.956 138.266 33.192 138.266 34.8C138.266 36.408 137.138 37.644 135.566 37.644ZM141.832 39H143.536V32.928L147.292 39H149.476V30.6H147.772V36.672L144.016 30.6H141.832V39ZM155.749 30.36C153.097 30.36 151.285 32.4 151.285 34.8C151.285 37.2 153.097 39.24 155.749 39.24C158.389 39.24 160.201 37.2 160.201 34.8C160.201 32.4 158.389 30.36 155.749 30.36ZM155.749 37.644C154.165 37.644 153.037 36.408 153.037 34.8C153.037 33.192 154.165 31.956 155.749 31.956C157.321 31.956 158.449 33.192 158.449 34.8C158.449 36.408 157.321 37.644 155.749 37.644ZM162.014 39H163.718V32.976L165.59 36.12H166.79L168.662 32.976V39H170.366V30.6H168.242L166.19 34.128L164.138 30.6H162.014V39ZM172.891 39H174.595V30.6H172.891V39ZM177.122 39H182.018V37.584H178.826V35.424H181.538V34.008H178.826V32.016H182.018V30.6H177.122V39ZM184.75 40.92L186.142 37.332H184.426L183.334 40.92H184.75ZM190.943 39H194.243C196.907 39 198.707 37.068 198.707 34.8C198.707 32.532 196.907 30.6 194.243 30.6H190.943V39ZM194.267 32.148C195.827 32.148 196.955 33.3 196.955 34.8C196.955 36.288 195.827 37.452 194.267 37.452H192.647V32.148H194.267ZM200.53 39H205.426V37.584H202.234V35.424H204.946V34.008H202.234V32.016H205.426V30.6H200.53V39ZM206.83 37.836C207.574 38.724 208.522 39.24 209.938 39.24C211.486 39.24 212.71 38.292 212.734 36.708C212.734 33.828 208.918 34.26 208.918 32.736C208.918 32.232 209.314 31.848 209.914 31.848C210.55 31.848 211.102 32.268 211.594 32.904L212.842 31.776C212.122 30.924 211.162 30.36 209.902 30.36C208.294 30.36 207.19 31.464 207.19 32.796C207.19 35.64 211.006 35.22 211.006 36.768C211.006 37.368 210.598 37.728 209.926 37.728C209.242 37.728 208.57 37.344 208.066 36.696L206.83 37.836ZM17.236 51H18.94V47.424H21.652V46.008H18.94V44.016H22.132V42.6H17.236V51ZM23.8116 51H25.5156V42.6H23.8116V51ZM28.0435 51H29.7475V44.928L33.5035 51H35.6875V42.6H33.9835V48.672L30.2275 42.6H28.0435V51ZM37.1608 51H38.9728L39.7768 48.816H43.1368L43.9408 51H45.7528L42.5728 42.6H40.3408L37.1608 51ZM40.3048 47.364L41.4568 44.208L42.6088 47.364H40.3048ZM47.2299 51H48.9339V44.928L52.6899 51H54.8739V42.6H53.1699V48.672L49.4139 42.6H47.2299V51ZM61.1472 49.644C59.5632 49.644 58.4352 48.408 58.4352 46.8C58.4352 45.192 59.5632 43.956 61.1472 43.956C62.1072 43.956 62.8632 44.424 63.3432 45.108L64.6872 44.064C63.9192 43.044 62.6712 42.36 61.1472 42.36C58.4952 42.36 56.6832 44.4 56.6832 46.8C56.6832 49.2 58.4952 51.24 61.1472 51.24C62.6712 51.24 63.9192 50.568 64.6872 49.524L63.3432 48.492C62.8632 49.176 62.1072 49.644 61.1472 49.644ZM66.346 51H71.242V49.584H68.05V47.424H70.762V46.008H68.05V44.016H71.242V42.6H66.346V51ZM72.6461 49.836C73.3901 50.724 74.3381 51.24 75.7541 51.24C77.3021 51.24 78.5261 50.292 78.5501 48.708C78.5501 45.828 74.7341 46.26 74.7341 44.736C74.7341 44.232 75.1301 43.848 75.7301 43.848C76.3661 43.848 76.9181 44.268 77.4101 44.904L78.6581 43.776C77.9381 42.924 76.9781 42.36 75.7181 42.36C74.1101 42.36 73.0061 43.464 73.0061 44.796C73.0061 47.64 76.8221 47.22 76.8221 48.768C76.8221 49.368 76.4141 49.728 75.7421 49.728C75.0581 49.728 74.3861 49.344 73.8821 48.696L72.6461 49.836ZM83.8112 51H88.7072V49.584H85.5152V47.424H88.2272V46.008H85.5152V44.016H88.7072V42.6H83.8112V51ZM90.179 44.148H92.771V51H94.475V44.148H97.067V42.6H90.179V44.148ZM102.038 51H105.338C108.002 51 109.802 49.068 109.802 46.8C109.802 44.532 108.002 42.6 105.338 42.6H102.038V51ZM105.362 44.148C106.922 44.148 108.05 45.3 108.05 46.8C108.05 48.288 106.922 49.452 105.362 49.452H103.742V44.148H105.362ZM111.625 51H116.521V49.584H113.329V47.424H116.041V46.008H113.329V44.016H116.521V42.6H111.625V51ZM121.976 51H126.872V49.452H123.68V42.6H121.976V51ZM127.859 51H129.671L130.475 48.816H133.835L134.639 51H136.451L133.271 42.6H131.039L127.859 51ZM131.003 47.364L132.155 44.208L133.307 47.364H131.003ZM16.48 61.836C17.224 62.724 18.172 63.24 19.588 63.24C21.136 63.24 22.36 62.292 22.384 60.708C22.384 57.828 18.568 58.26 18.568 56.736C18.568 56.232 18.964 55.848 19.564 55.848C20.2 55.848 20.752 56.268 21.244 56.904L22.492 55.776C21.772 54.924 20.812 54.36 19.552 54.36C17.944 54.36 16.84 55.464 16.84 56.796C16.84 59.64 20.656 59.22 20.656 60.768C20.656 61.368 20.248 61.728 19.576 61.728C18.892 61.728 18.22 61.344 17.716 60.696L16.48 61.836ZM27.9892 54.36C25.3372 54.36 23.5252 56.4 23.5252 58.8C23.5252 61.2 25.3372 63.24 27.9892 63.24C30.6292 63.24 32.4412 61.2 32.4412 58.8C32.4412 56.4 30.6292 54.36 27.9892 54.36ZM27.9892 61.644C26.4052 61.644 25.2772 60.408 25.2772 58.8C25.2772 57.192 26.4052 55.956 27.9892 55.956C29.5612 55.956 30.6892 57.192 30.6892 58.8C30.6892 60.408 29.5612 61.644 27.9892 61.644ZM39.2082 59.856C39.2082 60.984 38.5602 61.644 37.5162 61.644C36.4482 61.644 35.8122 60.984 35.8122 59.856V54.6H34.1082V59.712C34.1082 61.92 35.4042 63.24 37.5042 63.24C39.6162 63.24 40.9122 61.92 40.9122 59.712V54.6H39.2082V59.856ZM42.153 54.6L45.333 63H47.565L50.745 54.6H48.933L46.449 61.164L43.965 54.6H42.153ZM52.2221 63H57.1181V61.584H53.9261V59.424H56.6381V58.008H53.9261V56.016H57.1181V54.6H52.2221V63ZM59.2782 63H60.9822V59.604H61.8582L64.1022 63H66.1062L63.4782 59.28C64.3422 58.884 64.8342 58.128 64.8342 57.108C64.8342 55.548 63.6942 54.6 61.8462 54.6H59.2782V63ZM61.9422 56.016C62.6622 56.016 63.0822 56.448 63.0822 57.084C63.0822 57.768 62.6622 58.188 61.9422 58.188H60.9822V56.016H61.9422ZM66.6728 63H68.4848L69.2888 60.816H72.6488L73.4528 63H75.2648L72.0848 54.6H69.8528L66.6728 63ZM69.8168 59.364L70.9688 56.208L72.1208 59.364H69.8168ZM76.7419 63H78.4459V54.6H76.7419V63ZM80.9738 63H82.6778V56.928L86.4338 63H88.6178V54.6H86.9138V60.672L83.1578 54.6H80.9738V63ZM91.1471 63H96.0431V61.584H92.8511V59.424H95.5631V58.008H92.8511V56.016H96.0431V54.6H91.1471V63ZM97.515 56.148H100.107V63H101.811V56.148H104.403V54.6H97.515V56.148ZM109.284 53.88L110.844 52.26H109.092L107.736 53.88H109.284ZM106.08 63H110.976V61.584H107.784V59.424H110.496V58.008H107.784V56.016H110.976V54.6H106.08V63ZM116.43 63H118.134V54.6H116.43V63ZM120.662 63H122.366V56.928L126.122 63H128.306V54.6H126.602V60.672L122.846 54.6H120.662V63ZM130.835 63H134.135C136.799 63 138.599 61.068 138.599 58.8C138.599 56.532 136.799 54.6 134.135 54.6H130.835V63ZM134.159 56.148C135.719 56.148 136.847 57.3 136.847 58.8C136.847 60.288 135.719 61.452 134.159 61.452H132.539V56.148H134.159ZM145.376 59.856C145.376 60.984 144.728 61.644 143.684 61.644C142.616 61.644 141.98 60.984 141.98 59.856V54.6H140.276V59.712C140.276 61.92 141.572 63.24 143.672 63.24C145.784 63.24 147.08 61.92 147.08 59.712V54.6H145.376V59.856ZM148.621 61.836C149.365 62.724 150.313 63.24 151.729 63.24C153.277 63.24 154.501 62.292 154.525 60.708C154.525 57.828 150.709 58.26 150.709 56.736C150.709 56.232 151.105 55.848 151.705 55.848C152.341 55.848 152.893 56.268 153.385 56.904L154.633 55.776C153.913 54.924 152.953 54.36 151.693 54.36C150.085 54.36 148.981 55.464 148.981 56.796C148.981 59.64 152.797 59.22 152.797 60.768C152.797 61.368 152.389 61.728 151.717 61.728C151.033 61.728 150.361 61.344 149.857 60.696L148.621 61.836ZM155.569 56.148H158.161V63H159.865V56.148H162.457V54.6H155.569V56.148ZM164.134 63H165.838V59.604H166.714L168.958 63H170.962L168.334 59.28C169.198 58.884 169.69 58.128 169.69 57.108C169.69 55.548 168.55 54.6 166.702 54.6H164.134V63ZM166.798 56.016C167.518 56.016 167.938 56.448 167.938 57.084C167.938 57.768 167.518 58.188 166.798 58.188H165.838V56.016H166.798ZM172.221 63H173.925V54.6H172.221V63ZM176.453 63H181.349V61.584H178.157V59.424H180.869V58.008H178.157V56.016H181.349V54.6H176.453V63ZM183.509 63H188.405V61.452H185.213V54.6H183.509V63ZM190.085 63H194.981V61.452H191.789V54.6H190.085V63ZM196.66 63H201.556V61.584H198.364V59.424H201.076V58.008H198.364V56.016H201.556V54.6H196.66V63ZM207.011 63H211.907V61.584H208.715V59.424H211.427V58.008H208.715V56.016H211.907V54.6H207.011V63ZM213.379 56.148H215.971V63H217.675V56.148H220.267V54.6H213.379V56.148ZM17.236 75H18.94V68.928L22.696 75H24.88V66.6H23.176V72.672L19.42 66.6H17.236V75ZM32.2693 71.856C32.2693 72.984 31.6213 73.644 30.5773 73.644C29.5093 73.644 28.8733 72.984 28.8733 71.856V66.6H27.1693V71.712C27.1693 73.92 28.4653 75.24 30.5653 75.24C32.6773 75.24 33.9733 73.92 33.9733 71.712V66.6H32.2693V71.856ZM36.2701 75H37.9741V68.976L39.8461 72.12H41.0461L42.9181 68.976V75H44.6221V66.6H42.4981L40.4461 70.128L38.3941 66.6H36.2701V75ZM50.3505 65.88L51.9105 64.26H50.1585L48.8025 65.88H50.3505ZM47.1465 75H52.0425V73.584H48.8505V71.424H51.5625V70.008H48.8505V68.016H52.0425V66.6H47.1465V75ZM54.2026 75H55.9066V71.604H56.7826L59.0266 75H61.0306L58.4026 71.28C59.2666 70.884 59.7586 70.128 59.7586 69.108C59.7586 67.548 58.6186 66.6 56.7706 66.6H54.2026V75ZM56.8666 68.016C57.5866 68.016 58.0066 68.448 58.0066 69.084C58.0066 69.768 57.5866 70.188 56.8666 70.188H55.9066V68.016H56.8666ZM62.2899 75H63.9939V66.6H62.2899V75ZM73.5658 74.784L73.0618 74.304C74.0938 73.488 74.7178 72.204 74.7178 70.8C74.7178 68.4 72.9058 66.36 70.2658 66.36C67.6138 66.36 65.8018 68.4 65.8018 70.8C65.8018 73.2 67.6138 75.24 70.2658 75.24C70.6738 75.24 71.0578 75.192 71.4178 75.096L72.4138 75.984C73.2418 76.704 74.1058 77.088 75.0418 77.088C75.4138 77.088 75.6538 77.04 75.9298 76.932V75.492C75.7498 75.564 75.5098 75.588 75.3298 75.588C74.7898 75.588 74.2138 75.372 73.5658 74.784ZM70.2658 73.644C68.6818 73.644 67.5538 72.408 67.5538 70.8C67.5538 69.192 68.6818 67.956 70.2658 67.956C71.8378 67.956 72.9658 69.192 72.9658 70.8C72.9658 72.408 71.8378 73.644 70.2658 73.644ZM81.4847 71.856C81.4847 72.984 80.8367 73.644 79.7927 73.644C78.7247 73.644 78.0887 72.984 78.0887 71.856V66.6H76.3847V71.712C76.3847 73.92 77.6807 75.24 79.7807 75.24C81.8927 75.24 83.1887 73.92 83.1887 71.712V66.6H81.4847V71.856ZM85.4855 75H90.3815V73.584H87.1895V71.424H89.9015V70.008H87.1895V68.016H90.3815V66.6H85.4855V75Z" fill="#161616"/>
<path fill-rule="evenodd" clip-rule="evenodd" d="M47.18 96.6137L46.0638 97.6337H45.7758L46.4359 96.4697H47.18V96.6137ZM46.3759 100.561H46.1359C45.8358 100.921 45.4998 101.209 45.1757 101.209C44.8397 101.209 44.6717 101.005 44.6717 100.561C44.6717 100.381 44.6957 100.189 44.7317 100.021L46.688 99.3732C47.072 98.4612 46.6159 98.0653 46.0759 98.0653C45.1517 98.0653 44.0956 99.6852 44.0956 100.981C44.0956 101.593 44.3836 101.929 44.8397 101.929C45.3678 101.917 45.9198 101.401 46.3759 100.561ZM45.7046 98.5935C45.9686 98.5935 46.1966 98.7975 46.0766 99.2655L44.8644 99.5895C45.0565 99.0135 45.4165 98.5935 45.7046 98.5935ZM41.8886 98.6172H42.5367L41.5045 101.449C41.4085 101.689 41.5405 101.929 41.7925 101.929C42.5247 101.929 43.4008 101.305 43.7368 100.417H43.5568C43.2928 100.789 42.7167 101.197 42.2846 101.269L43.2328 98.6172H44.2049L44.3249 98.2093H43.3768L43.7368 97.1893H43.3648L42.6927 98.2093L41.8886 98.3173V98.6172ZM40.9878 98.0779C41.1198 98.0779 41.2998 98.2219 41.2158 98.4859L40.0516 101.306C40.3517 101.258 40.6637 100.97 40.8438 100.706H41.0358C40.7597 101.414 40.1356 101.93 39.5956 101.93C39.4636 101.93 39.2715 101.786 39.3675 101.522L40.4477 98.7019C40.1477 98.7499 39.8356 99.0379 39.6556 99.3019H39.4756C39.7516 98.5819 40.4237 98.0779 40.9878 98.0779ZM41.3246 97.3577C41.5647 97.3577 41.7687 97.1657 41.7687 96.9137C41.7687 96.6737 41.5647 96.4697 41.3246 96.4697C41.0726 96.4697 40.8806 96.6737 40.8806 96.9137C40.8806 97.1537 41.0846 97.3577 41.3246 97.3577ZM36.0797 99.6979C36.3437 99.1219 36.2477 98.8579 36.0797 98.8579C35.9357 98.8579 35.7676 99.0139 35.5996 99.3019H35.4196C35.6956 98.6899 36.0557 98.0779 36.4517 98.0779C36.7878 98.0779 36.9078 98.4139 36.9078 98.7859V99.3139C36.9618 99.2511 37.0144 99.1894 37.0658 99.1291L37.0667 99.128L37.0675 99.1271C37.5745 98.5322 37.9617 98.0779 38.408 98.0779C38.7561 98.0779 38.9361 98.2939 38.9361 98.6179C38.9361 98.8099 38.8761 99.0499 38.7441 99.3019L37.7479 101.306C38.048 101.258 38.36 100.97 38.54 100.706H38.7201C38.444 101.426 37.7719 101.93 37.2079 101.93C36.9558 101.93 36.8118 101.666 36.9198 101.45L38.072 99.2299C38.204 98.9779 38.228 98.8099 38.024 98.8099C37.7479 98.8099 37.0998 99.2659 36.7518 99.6859L35.9957 101.678C35.9117 101.882 35.8277 101.93 35.6356 101.93C35.3236 101.93 35.1676 101.726 35.3116 101.402L36.0797 99.6979ZM35.2987 98.9292C35.4307 98.4732 35.3587 98.0653 35.0106 98.0653C34.5766 98.0653 34.4407 98.3519 34.02 99.2389L33.9905 99.3012V98.7732C33.9905 98.4012 33.8705 98.0653 33.5344 98.0653C33.1384 98.0653 32.7783 98.6772 32.5023 99.2892H32.6823C32.8743 99.0132 33.0544 98.8452 33.1984 98.8452C33.3664 98.8452 33.4624 99.1092 33.1984 99.6852L32.4303 101.389C32.2863 101.713 32.4423 101.917 32.7543 101.917C32.9464 101.917 33.0304 101.869 33.1144 101.665L33.8705 99.6732C34.0865 99.4092 34.2785 99.1812 34.5186 98.9292H35.2987ZM31.5064 99.2655C31.6264 98.7975 31.3984 98.5935 31.1344 98.5935C30.8463 98.5935 30.4863 99.0135 30.2942 99.5895L31.5064 99.2655ZM31.8057 100.561H31.5657C31.2656 100.921 30.9296 101.209 30.6055 101.209C30.2695 101.209 30.1015 101.005 30.1015 100.561C30.1015 100.381 30.1255 100.189 30.1615 100.021L32.1178 99.3732C32.5018 98.4612 32.0458 98.0653 31.5057 98.0653C30.5815 98.0653 29.5254 99.6852 29.5254 100.981C29.5254 101.593 29.8134 101.929 30.2695 101.929C30.7976 101.917 31.3497 101.401 31.8057 100.561ZM27.9665 98.6172H27.3184V98.3173L28.1225 98.2093L28.7946 97.1893H29.1666L28.8066 98.2093H29.7547L29.6347 98.6172H28.6626L27.7144 101.269C28.1465 101.197 28.7226 100.789 28.9866 100.417H29.1666C28.8306 101.305 27.9545 101.929 27.2224 101.929C26.9703 101.929 26.8383 101.689 26.9343 101.449L27.9665 98.6172ZM23.8865 100.813C23.8865 99.9374 24.8586 98.7615 25.3987 98.7615C25.5187 98.7615 25.6387 98.7735 25.7347 98.8095L25.1707 100.321C24.8466 100.717 24.3425 101.197 24.1025 101.197C23.9705 101.197 23.8865 101.077 23.8865 100.813ZM26.5632 97.8856L26.8632 97.9096L25.8191 100.309C25.567 100.885 25.675 101.149 25.8191 101.149C25.9631 101.149 26.1431 100.981 26.3351 100.705H26.5152C26.2391 101.317 25.8791 101.929 25.483 101.929C25.147 101.929 24.9429 101.569 25.0029 100.921L25.0269 100.693L24.9616 100.785C24.5317 101.386 24.1427 101.929 23.7428 101.929C23.3947 101.929 23.2147 101.713 23.2147 101.389C23.2147 99.9975 24.7389 98.2216 26.1671 98.2216H26.2271L26.5632 97.8856ZM23.814 98.9292C23.946 98.4732 23.874 98.0653 23.526 98.0653C23.0919 98.0653 22.956 98.3519 22.5354 99.2389L22.5058 99.3012V98.7732C22.5058 98.4012 22.3858 98.0653 22.0498 98.0653C21.6537 98.0653 21.2937 98.6772 21.0176 99.2892H21.1976C21.3897 99.0132 21.5697 98.8452 21.7017 98.8452C21.8697 98.8452 21.9658 99.1092 21.7017 99.6852L20.9336 101.401C20.7896 101.725 20.9456 101.929 21.2576 101.929C21.4497 101.929 21.5337 101.881 21.6177 101.677L22.3738 99.6852C22.5898 99.4212 22.7819 99.1932 23.0219 98.9412H23.814V98.9292ZM18.8684 101.568L18.7964 101.784H16L16.072 101.556C16.9361 101.4 17.0802 101.328 17.4402 100.356L18.2203 98.2685C18.5684 97.2966 18.4964 97.2246 17.7403 97.0686L17.8123 96.8526H21.4488L21.2328 98.0165H20.9687C20.9687 97.3206 20.8967 97.1406 20.2366 97.1406H20.0686C19.4205 97.1406 19.3365 97.2366 19.1565 97.7405L18.6404 99.1445H19.3965C19.9006 99.1445 20.0926 98.8325 20.3206 98.4245H20.5847L19.9606 100.128H19.6965C19.7565 99.6124 19.7565 99.4084 19.2885 99.4084H18.5324L18.1843 100.368C17.8081 101.368 17.9156 101.388 18.8115 101.558C18.8301 101.561 18.8491 101.565 18.8684 101.568Z" fill="black"/>
<path fill-rule="evenodd" clip-rule="evenodd" d="M21.2448 87.4341L20.1286 88.2385V88.2505H19.8405L20.5006 87.29H21.2448V87.4341ZM29.0472 93.0648L30.8355 88.3105L30.7755 88.2384L29.5393 88.3825V88.5266L29.7793 88.7066C29.9843 88.8661 29.93 89.0147 29.76 89.4805L29.7313 89.5591L28.3631 93.2089C28.2551 93.425 28.3991 93.6891 28.6511 93.6891C29.2152 93.6891 29.8153 93.1728 30.0914 92.4645H29.9114C29.7193 92.7286 29.3353 93.0168 29.0472 93.0648ZM37.2438 89.403L38.36 88.3825V88.2384H37.6159L36.9558 89.403H37.2438ZM37.315 92.3204H37.5551C37.111 93.1728 36.5589 93.6891 36.0308 93.6891C35.5747 93.6891 35.2867 93.3529 35.2867 92.7406C35.2867 91.444 36.3429 89.8232 37.267 89.8232C37.7951 89.8232 38.2632 90.2194 37.8791 91.1318L35.9108 91.7801C35.8748 91.9482 35.8508 92.1403 35.8508 92.3204C35.8508 92.7646 36.0188 92.9687 36.3549 92.9687C36.6789 92.9687 37.015 92.6806 37.315 92.3204ZM37.2544 91.0238C37.3745 90.5676 37.1464 90.3635 36.8824 90.3635C36.6063 90.3635 36.2463 90.7837 36.0422 91.348L37.2544 91.0238ZM33.7258 90.3872H33.0777V90.0871L33.8818 89.979L34.554 88.9585H34.926L34.566 89.979H35.5141L35.3941 90.3872H34.4219L33.4738 93.0405C33.9058 92.9685 34.4819 92.5603 34.746 92.1881H34.926C34.59 93.0765 33.7138 93.7008 32.9817 93.7008C32.7296 93.7008 32.5976 93.4607 32.6936 93.2206L33.7258 90.3872ZM32.4055 90.2431C32.4775 89.979 32.3095 89.8349 32.1655 89.8349C31.6014 89.8349 30.9292 90.3512 30.6532 91.0595H30.8332C31.0133 90.7954 31.3253 90.5072 31.6254 90.4592L30.5452 93.2806C30.4492 93.5447 30.6412 93.6888 30.7732 93.6888C31.3133 93.6888 31.9374 93.1726 32.2135 92.4642H32.0334C31.8534 92.7283 31.5413 93.0165 31.2413 93.0645L32.4055 90.2431ZM32.9585 88.6826C32.9585 88.9228 32.7544 89.1269 32.5144 89.1269C32.2744 89.1269 32.0703 88.9228 32.0703 88.6826C32.0703 88.4425 32.2624 88.2384 32.5144 88.2384C32.7544 88.2384 32.9585 88.4425 32.9585 88.6826ZM26.8987 90.5315C26.3586 90.5315 25.3864 91.7081 25.3864 92.5846C25.3864 92.8487 25.4704 92.9687 25.6145 92.9687C25.8425 92.9687 26.3466 92.4885 26.6706 92.0923L27.2347 90.5796C27.1267 90.5435 27.0187 90.5315 26.8987 90.5315ZM28.3632 89.6791L28.0632 89.6551L27.7271 89.9913H27.6671C26.2389 89.9913 24.7146 91.7682 24.7146 93.1609C24.7146 93.485 24.8946 93.7011 25.2427 93.7011C25.6426 93.7011 26.0316 93.1571 26.4616 92.5558L26.5269 92.4645L26.5029 92.6926C26.4429 93.3409 26.6469 93.7011 26.983 93.7011C27.3791 93.7011 27.7391 93.0888 28.0152 92.4765H27.8351C27.6431 92.7527 27.4631 92.9207 27.3191 92.9207C27.175 92.9207 27.067 92.6566 27.3191 92.0803L28.3632 89.6791ZM22.3135 93.5692C21.7974 93.7733 21.4373 94.0134 21.4373 94.3856C21.4373 94.7337 21.7614 94.8778 22.4335 94.8778C23.3337 94.8778 23.8258 94.6137 23.8258 94.2655C23.8258 94.1094 23.6217 94.0374 23.0816 93.8573C22.7336 93.7493 22.4815 93.6532 22.3135 93.5692ZM22.9128 92.0924C22.6728 92.0924 22.5888 91.8883 22.5888 91.6722C22.5888 90.9758 22.9248 90.1114 23.4649 90.1114C23.705 90.1114 23.789 90.3155 23.789 90.5316C23.777 91.24 23.4409 92.0924 22.9128 92.0924ZM23.3701 93.2209C24.0302 93.425 24.4383 93.581 24.4383 94.0373C24.4383 94.6255 23.3581 95.3219 22.0499 95.3099C21.2937 95.3099 20.6456 95.1058 20.6456 94.6135C20.6456 94.1453 21.0777 93.7611 22.1339 93.449C21.9899 93.3529 21.9299 93.2329 21.9299 93.0648C21.9299 92.7766 22.1939 92.5485 22.65 92.3324C22.2059 92.2724 21.9178 91.9362 21.9178 91.444C21.9178 90.6876 22.542 89.8232 23.5261 89.8232C23.7302 89.8232 23.9102 89.8712 24.0542 89.9673H25.1344L25.0144 90.3755H24.3783C24.4143 90.4835 24.4383 90.6036 24.4383 90.7356C24.4383 91.468 23.8502 92.3084 22.914 92.3564C22.674 92.4885 22.554 92.6686 22.554 92.8127C22.554 92.9822 22.7503 93.0395 23.1842 93.1662C23.2419 93.183 23.3039 93.2011 23.3701 93.2209ZM19.5646 91.1679C20.0327 91.1679 20.0447 91.372 19.9727 91.8883H20.2367L20.8609 90.1834H20.5968C20.3688 90.5916 20.1767 90.9038 19.6726 90.9038H18.6405L19.1446 89.4991C19.3246 88.9949 19.4086 88.8988 20.0567 88.8988H20.5128C21.1729 88.8988 21.2449 89.0789 21.2449 89.7752H21.509L21.725 88.6107H17.8123L17.7403 88.8268C18.4964 88.9829 18.5684 89.0549 18.2204 90.0274L17.4403 92.1284C17.0802 93.1009 16.9362 93.1729 16.06 93.329L16 93.5571H20.3448L21.1249 92.3205H20.8248C20.3208 92.8127 19.8167 93.269 18.8325 93.269C17.75 93.269 17.7693 93.216 18.0941 92.3234C18.115 92.266 18.1372 92.205 18.1604 92.1404L18.5204 91.1799H19.5646V91.1679Z" fill="black"/>
<path fill-rule="evenodd" clip-rule="evenodd" d="M23.1496 80.8876C23.3896 80.8876 23.5936 80.6837 23.5936 80.4438C23.5936 80.2039 23.3896 80 23.1496 80C22.8977 80 22.7057 80.2039 22.7057 80.4438C22.7057 80.6957 22.8977 80.8876 23.1496 80.8876ZM26.7022 82.3986C26.7022 81.8229 26.5583 81.607 26.1503 81.607C25.6464 81.607 25.1785 82.1467 24.7106 82.7944L25.7184 80.0956L25.6584 80.0117L24.4227 80.1556V80.2996L24.6626 80.4795C24.8716 80.6419 24.811 80.8044 24.633 81.2818L24.6146 81.3311L23.5229 84.1858C23.4269 84.4257 23.3189 84.7136 23.3189 84.7856C23.3189 85.1214 23.7748 85.4453 24.1947 85.4453C25.1305 85.4573 26.7022 83.73 26.7022 82.3986ZM37.1042 81.1752L38.22 80.1556V80.0117H37.4761L36.8163 81.1752H37.1042ZM37.1765 84.0899H37.4164C36.9605 84.9415 36.4086 85.4573 35.8807 85.4453C35.4248 85.4453 35.1369 85.1214 35.1369 84.5097C35.1369 83.2143 36.1927 81.595 37.1165 81.595C37.6444 81.595 38.1123 81.9908 37.7284 82.9024L35.7727 83.5501C35.7368 83.7181 35.7128 83.91 35.7128 84.0899C35.7128 84.5337 35.8807 84.7376 36.2167 84.7376C36.5406 84.7376 36.8765 84.4497 37.1765 84.0899ZM37.1153 82.7945C37.2353 82.3387 37.0073 82.1348 36.7434 82.1348C36.4555 82.1348 36.0955 82.5546 35.9036 83.1184L37.1153 82.7945ZM33.5747 82.1595H32.9268V81.8596L33.7306 81.7516L34.4025 80.7321H34.7744L34.4145 81.7516H35.3623L35.2423 82.1595H34.2705L33.3227 84.8103C33.7546 84.7383 34.3305 84.3305 34.5945 83.9587H34.7744C34.4385 84.8463 33.5627 85.47 32.8308 85.47C32.5789 85.47 32.4469 85.2301 32.5429 84.9902L33.5747 82.1595ZM32.5931 82.4713C32.7251 82.0155 32.6531 81.6077 32.3052 81.6077C31.8713 81.6077 31.7354 81.8942 31.3149 82.7809L31.2854 82.8431V82.3154C31.2854 81.9435 31.1654 81.6077 30.8295 81.6077C30.4336 81.6077 30.0736 82.2194 29.7977 82.8311H29.9776C30.1696 82.5553 30.3496 82.3873 30.4815 82.3873C30.6495 82.3873 30.7455 82.6512 30.4815 83.227L29.7137 84.9302C29.5697 85.2541 29.7257 85.458 30.0376 85.458C30.2296 85.458 30.3136 85.41 30.3976 85.2061L31.1534 83.215C31.3694 82.9511 31.5613 82.7232 31.8013 82.4713H32.5931ZM28.7902 82.7945C28.9101 82.3387 28.6822 82.1348 28.4182 82.1348C28.1303 82.1348 27.7823 82.5546 27.5784 83.1184L28.7902 82.7945ZM29.0893 84.0899H28.8494C28.5495 84.4497 28.2135 84.7376 27.8896 84.7376C27.5536 84.7376 27.3857 84.5337 27.3857 84.0899C27.3857 83.91 27.4097 83.7181 27.4457 83.5501L29.4013 82.9024C29.7852 81.9908 29.3293 81.595 28.7894 81.595C27.8656 81.595 26.8098 83.2143 26.8098 84.5097C26.8098 85.1214 27.0977 85.4453 27.5536 85.4453C28.0815 85.4573 28.6334 84.9415 29.0893 84.0899ZM24.0512 84.5461C24.0512 84.702 24.3272 84.882 24.5191 84.882C25.299 84.882 26.0308 83.4786 26.0188 82.6989C26.0188 82.435 25.8869 82.3271 25.7069 82.3271C25.419 82.3271 24.8911 82.7589 24.5551 83.1667L24.2432 84.0064C24.1352 84.2822 24.0512 84.4981 24.0512 84.5461ZM22.7917 81.6077C22.9357 81.6077 23.1036 81.7516 23.0316 82.0155L21.8799 84.8343C22.1798 84.7863 22.4917 84.4984 22.6717 84.2345H22.8517C22.5757 84.9422 21.9518 85.458 21.4119 85.458C21.268 85.458 21.076 85.314 21.172 85.0502L22.2518 82.2314C21.9518 82.2794 21.6399 82.5673 21.4599 82.8311H21.28C21.5559 82.1235 22.2278 81.6077 22.7917 81.6077ZM17.8116 80.3602H20.3911L20.3192 80.5881C19.4433 80.744 19.2994 80.816 18.9394 81.7876L18.1716 83.8986C17.7997 84.9062 17.8956 85.0261 18.5555 85.0261C19.3708 85.0261 19.9053 84.4337 20.3721 83.9164C20.4068 83.878 20.4411 83.84 20.4751 83.8027H20.7751L19.9232 85.314H16L16.072 85.0981C16.9358 84.9422 17.0798 84.8702 17.4397 83.8986L18.2196 81.7756C18.5675 80.804 18.4955 80.732 17.7397 80.5761L17.8116 80.3602Z" fill="black"/>
</svg>
