<svg width="466" height="84" viewBox="0 0 466 84" fill="none" xmlns="http://www.w3.org/2000/svg">
<rect width="33" height="12" transform="translate(0 9)" fill="white"/>
<path d="M10.6562 19.5498C10.6602 19.5498 10.6642 19.5439 10.6642 19.5439C10.696 19.5203 10.7279 19.4909 10.7558 19.4556C10.7518 19.4556 10.7478 19.4556 10.7438 19.4498C10.7159 19.4792 10.6841 19.5145 10.6562 19.5498Z" fill="#000091"/>
<path d="M15.0694 18.0629L14.9997 18.1229C15.0396 18.1129 15.0694 18.1029 15.0694 18.0629Z" fill="#000091"/>
<path fill-rule="evenodd" clip-rule="evenodd" d="M13.6426 19.5817C13.7704 19.4532 13.8983 19.3168 14.0261 19.1765H14.0222C14.2624 18.9038 14.4948 18.6428 14.7737 18.4051C14.8589 18.3272 14.9402 18.261 15.0177 18.2064C15.0291 18.195 15.0349 18.1779 15.0406 18.1612C15.0465 18.1438 15.0523 18.1268 15.0642 18.1168C15.009 18.1379 14.965 18.1712 14.9207 18.2047C14.8749 18.2394 14.8289 18.2742 14.7698 18.296C14.7466 18.296 14.7233 18.2727 14.7466 18.2493C14.8279 18.1908 14.9092 18.1285 14.9867 18.0662H14.9712C14.948 18.0662 14.948 18.0428 14.948 18.0194C14.6596 17.9736 14.4381 18.1708 14.2399 18.3473L14.2275 18.3584C14.1966 18.3739 14.1675 18.3585 14.1446 18.3464C14.133 18.3403 14.123 18.335 14.1152 18.335C13.9398 18.3938 13.7885 18.5022 13.6362 18.6114C13.4959 18.7119 13.3548 18.813 13.1933 18.8765V18.8298C13.1384 18.8487 13.0842 18.8734 13.0298 18.8981C12.9498 18.9345 12.8696 18.971 12.7865 18.9895C12.6349 19.0247 12.4943 19.0202 12.358 19.0158C12.3133 19.0143 12.2689 19.0129 12.2249 19.0129C11.9768 19.0375 11.7319 19.0906 11.4872 19.1437L11.4076 19.161C11.4037 19.1629 11.3998 19.1639 11.3959 19.1649C11.3921 19.1658 11.3882 19.1668 11.3843 19.1688C11.2371 19.2077 11.1016 19.2623 10.966 19.3402L10.9505 19.348C10.9452 19.3551 10.9398 19.3614 10.9349 19.3673C10.929 19.3743 10.9237 19.3806 10.9195 19.3869C10.873 19.4415 10.8304 19.4882 10.7646 19.5233C10.6673 19.5722 10.5832 19.6476 10.5005 19.7219C10.4647 19.754 10.429 19.7861 10.3927 19.8155C10.385 19.8233 10.3695 19.8272 10.3578 19.8272C10.2378 19.9441 10.1177 20.061 9.99373 20.1739C9.98598 20.1817 9.95112 20.1856 9.924 20.1817C9.924 20.1817 9.92788 20.1817 9.92788 20.1778L9.9395 20.1545L9.9976 20.061C10.0092 20.0434 10.0199 20.0259 10.0305 20.0084C10.0412 19.9908 10.0518 19.9733 10.0635 19.9558C10.0944 19.909 10.1255 19.8622 10.1603 19.8194C10.168 19.8077 10.168 19.796 10.1603 19.7882C10.1525 19.7804 10.1409 19.7765 10.1293 19.7765C10.2416 19.6675 10.3733 19.5739 10.5089 19.4921V19.4882C10.4934 19.4921 10.4702 19.4804 10.4818 19.4649C10.4932 19.4506 10.5024 19.4342 10.5112 19.4188L10.5205 19.4025C10.5225 19.3986 10.5234 19.3957 10.5244 19.3928C10.5254 19.3899 10.5263 19.3869 10.5283 19.383C10.5263 19.3791 10.5234 19.3762 10.5205 19.3733C10.5176 19.3704 10.5147 19.3675 10.5128 19.3636L10.4893 19.3791C10.4612 19.3974 10.4324 19.4163 10.4082 19.4376C10.3911 19.4523 10.3751 19.4725 10.3588 19.4932C10.3232 19.5382 10.2857 19.5856 10.23 19.5856C10.2261 19.5856 10.2068 19.5856 10.1952 19.5817C10.1835 19.5817 10.1758 19.5778 10.1719 19.5739C10.1719 19.572 10.1719 19.571 10.1724 19.5705C10.1729 19.57 10.1738 19.57 10.1758 19.57C10.1758 19.57 10.1797 19.5662 10.1797 19.5623C10.1797 19.5623 10.1797 19.5584 10.1835 19.5584C10.1855 19.5545 10.1874 19.5515 10.1893 19.5486C10.1913 19.5457 10.1932 19.5428 10.1952 19.5389C10.1971 19.535 10.199 19.5321 10.201 19.5291C10.2029 19.5262 10.2048 19.5233 10.2068 19.5194C10.2087 19.5175 10.2097 19.5145 10.2106 19.5116C10.2116 19.5087 10.2126 19.5058 10.2145 19.5038L10.2189 19.4958C10.2227 19.4889 10.2273 19.4808 10.23 19.4726C10.2319 19.4688 10.2339 19.4658 10.2358 19.4629C10.2378 19.46 10.2397 19.4571 10.2416 19.4532C10.2474 19.4454 10.2523 19.4366 10.2571 19.4278C10.262 19.4191 10.2668 19.4103 10.2726 19.4025C10.2765 19.3947 10.2804 19.3869 10.2881 19.3791C10.292 19.3713 10.2959 19.3645 10.2997 19.3577C10.3036 19.3509 10.3075 19.3441 10.3114 19.3363C10.323 19.3168 10.3114 19.3012 10.2959 19.2973C10.3385 19.2428 10.3888 19.196 10.4508 19.161H10.4431C10.4965 19.1341 10.5515 19.1026 10.6062 19.0713C10.6384 19.0528 10.671 19.0341 10.7026 19.0168C10.7142 19.0051 10.7258 18.9934 10.7413 18.9856C10.6135 19.0285 10.4973 19.0869 10.385 19.1649C10.385 19.1649 10.354 19.1765 10.3462 19.1843C10.3462 19.1843 10.323 19.1921 10.292 19.1649C10.2881 19.161 10.2881 19.1571 10.2881 19.1493C10.3016 19.1222 10.3293 19.1043 10.3594 19.0849C10.3812 19.0708 10.4041 19.056 10.4237 19.0363C10.4469 19.0363 10.4663 19.0363 10.4663 19.0597C10.9124 18.7099 11.4625 18.6289 12.0144 18.5477C12.3539 18.4978 12.6941 18.4478 13.0112 18.335C13.0441 18.3116 13.078 18.2892 13.1119 18.2668C13.1458 18.2444 13.1797 18.222 13.2126 18.1986C13.2691 18.1751 13.3198 18.1348 13.3734 18.0922C13.4263 18.0501 13.4822 18.0056 13.5496 17.9727C13.7278 17.8363 13.8634 17.6805 13.9331 17.4506C13.9331 17.4272 13.9099 17.4038 13.9099 17.4038C13.6155 17.7194 13.2785 17.9688 12.9182 18.1519C12.5747 18.3331 12.2067 18.36 11.8423 18.3866C11.7054 18.3966 11.569 18.4065 11.4347 18.4246C11.4579 18.3778 11.5044 18.3779 11.547 18.3779C11.547 18.3225 11.5735 18.2987 11.6075 18.2682C11.6166 18.26 11.6263 18.2514 11.6361 18.2415H11.702C11.7136 18.2415 11.7194 18.2298 11.7252 18.2181C11.731 18.2064 11.7368 18.1947 11.7484 18.1947C11.7949 18.1947 11.8608 18.1714 11.8375 18.1714C11.802 18.1257 11.7504 18.1438 11.6934 18.1637C11.6386 18.1829 11.5789 18.2038 11.5238 18.1714C11.5443 18.1489 11.5504 18.1219 11.556 18.0974C11.5621 18.0708 11.5675 18.0471 11.5896 18.035H11.6787C11.6787 17.9882 11.7252 17.9454 11.7252 17.9454C11.9272 17.8239 12.1223 17.7179 12.3137 17.6138C12.4416 17.5443 12.568 17.4756 12.6936 17.4038C12.6682 17.4038 12.6456 17.4143 12.6238 17.4244C12.589 17.4406 12.5558 17.4559 12.5154 17.4272C12.5386 17.4272 12.5386 17.4107 12.5386 17.3941C12.5386 17.3775 12.5386 17.361 12.5619 17.361C12.7072 17.3222 12.8365 17.2592 12.9686 17.195C13.0619 17.1496 13.1565 17.1036 13.2591 17.0649C13.2287 17.0649 13.2005 17.0731 13.173 17.0811C13.1201 17.0964 13.0699 17.111 13.0112 17.0649C13.0266 17.0571 13.039 17.0473 13.0513 17.0375C13.076 17.0178 13.1002 16.9986 13.1468 16.9986V16.9324C13.1468 16.909 13.17 16.909 13.1933 16.909C13.17 16.909 13.1468 16.8857 13.1468 16.8857C13.1591 16.8609 13.1833 16.8558 13.2103 16.8501C13.2343 16.8451 13.2605 16.8396 13.2824 16.8194C13.2591 16.8194 13.2165 16.8194 13.2165 16.796C13.2824 16.7064 13.3947 16.6831 13.507 16.6597C13.4954 16.6363 13.4731 16.6363 13.4538 16.6363C13.4344 16.6363 13.4179 16.6363 13.4179 16.6129C13.4179 16.5896 13.4412 16.5896 13.4644 16.5896H13.4179C13.3815 16.5712 13.3879 16.5385 13.3924 16.5158C13.3936 16.5096 13.3947 16.5041 13.3947 16.4999C13.4857 16.3927 13.5156 16.2662 13.5454 16.1404C13.5599 16.0788 13.5745 16.0173 13.5961 15.9584C13.5729 15.9584 13.5496 15.9584 13.5496 15.935C13.3318 16.1767 12.9866 16.2683 12.6587 16.3554L12.6277 16.3636H12.5154C12.4031 16.4103 12.2443 16.4103 12.1319 16.3402C12.0785 16.3122 12.0404 16.2771 11.9993 16.2393C11.9718 16.214 11.9429 16.1875 11.9073 16.161C11.7252 16.048 11.547 15.9584 11.3456 15.8883C10.7839 15.709 10.199 15.6155 9.61412 15.6389C9.77746 15.5491 9.95088 15.5133 10.1266 15.4771C10.2176 15.4584 10.3093 15.4395 10.4004 15.4129C10.458 15.396 10.515 15.3785 10.5716 15.3611C10.8929 15.2626 11.2046 15.1671 11.547 15.187C11.5022 15.1711 11.4448 15.1768 11.392 15.1821C11.3672 15.1846 11.3434 15.187 11.3224 15.187C11.0634 15.1677 10.8019 15.2253 10.529 15.2855C10.4712 15.2982 10.4129 15.3111 10.354 15.3233C10.2471 15.3456 10.1455 15.3775 10.0437 15.4095C9.93151 15.4448 9.81915 15.4801 9.69934 15.5025C9.64737 15.5205 9.60565 15.551 9.56501 15.5807C9.49962 15.6285 9.43704 15.6743 9.3391 15.6623V15.5922C9.56376 15.3194 9.83491 15.0506 10.1952 15.0272C10.5434 14.9705 10.8717 15.0109 11.2142 15.053C11.2718 15.0601 11.3297 15.0673 11.3882 15.074C11.669 15.0966 11.9317 15.1592 12.2148 15.2267L12.2443 15.2337C12.3062 15.2337 12.3411 15.2883 12.3748 15.3411C12.4023 15.384 12.429 15.4258 12.4689 15.4363C12.5241 15.4553 12.5792 15.4589 12.6344 15.4624C12.7148 15.4676 12.7952 15.4728 12.8756 15.5259C12.8756 15.5102 12.873 15.4949 12.8704 15.4798C12.8653 15.4499 12.8602 15.4206 12.8756 15.3896C12.9256 15.3393 12.9829 15.3528 13.0393 15.3661C13.0834 15.3764 13.127 15.3867 13.1662 15.3662C13.289 15.29 13.1738 15.1729 13.0585 15.0558C13.0029 14.9993 12.9472 14.9428 12.9182 14.8909C12.9182 14.8675 12.9415 14.8441 12.9415 14.8441C12.9924 14.8897 13.0398 14.9369 13.0867 14.9837C13.2043 15.1008 13.3194 15.2153 13.4799 15.2961C13.5922 15.3428 13.8634 15.409 13.8169 15.2727C13.7373 15.0961 13.6014 14.9429 13.4642 14.7883C13.4077 14.7246 13.351 14.6607 13.2979 14.5948V14.5052C13.2625 14.5052 13.2541 14.4917 13.2435 14.4749C13.2402 14.4696 13.2367 14.464 13.232 14.4584V14.3688C13.1752 14.339 13.1625 14.2918 13.1497 14.2443C13.1424 14.2173 13.1351 14.1902 13.1197 14.1662C13.0808 14.1033 13.0781 14.0259 13.0752 13.946C13.0729 13.8825 13.0705 13.8175 13.0499 13.7571C13.0035 13.6207 12.9841 13.5078 12.9609 13.3714C12.9356 13.2319 12.9079 13.0985 12.8807 12.9679C12.8328 12.7374 12.7866 12.5157 12.7594 12.2844C12.7236 11.9538 12.8905 11.6743 13.0612 11.3885C13.1118 11.3037 13.1627 11.2185 13.2088 11.1312C13.3676 10.8584 13.5458 10.5896 13.8401 10.4065C13.9044 10.1405 14.0791 9.91896 14.253 9.69854L14.2662 9.68181C14.4379 9.4679 14.7245 9.33714 14.9357 9.24076L14.9596 9.22987C15.2734 9.08961 15.5561 9 15.56 9H0V20.996H11.0396C11.3348 20.782 11.6283 20.6469 11.9775 20.4862C12.1369 20.4129 12.3079 20.3342 12.496 20.2402C12.5359 20.2201 12.5832 20.1968 12.6357 20.171C12.951 20.0159 13.4534 19.7687 13.6426 19.5817ZM10.1396 17.9633C10.0958 17.9677 10.0494 17.9723 10.0669 17.9372C10.0832 17.8583 10.1639 17.8347 10.2428 17.8116C10.2765 17.8017 10.31 17.7919 10.3378 17.7779L10.3505 17.7714L10.3598 17.7664C10.4035 17.7432 10.457 17.7148 10.4965 17.7313C10.5231 17.7692 10.5561 17.779 10.5881 17.7884C10.612 17.7955 10.6353 17.8024 10.6551 17.8207C10.5714 17.9047 10.4737 17.913 10.3747 17.9214C10.3089 17.9269 10.2425 17.9326 10.1791 17.9605C10.1678 17.9605 10.1538 17.9619 10.1396 17.9633ZM6.71263 17.4154C6.71263 17.4388 6.73587 17.4622 6.73587 17.4622C7.27817 16.8505 7.77011 16.3284 8.46735 15.8959C8.48601 15.8881 8.47907 15.8979 8.46984 15.9109C8.45609 15.9302 8.43727 15.9567 8.49059 15.9427C8.72141 15.8901 8.82508 15.6923 8.92594 15.5C8.95202 15.4502 8.97791 15.4008 9.00577 15.3544C9.11155 15.1823 9.26178 15.0721 9.41317 14.9611C9.52234 14.881 9.63212 14.8004 9.72625 14.696C9.72625 14.7193 9.72625 14.7427 9.703 14.7661C9.72625 14.7895 9.74949 14.7895 9.77273 14.7895C9.81359 14.7586 9.8582 14.7459 9.90095 14.7336C9.95547 14.718 10.007 14.7033 10.0439 14.6531C9.86569 14.583 9.63715 14.5596 9.45897 14.6297C8.9864 14.8557 8.58355 15.218 8.20007 15.6271C7.96766 15.8726 7.7275 16.1024 7.43311 16.2622C7.23169 16.6674 7.00702 17.0297 6.71263 17.4154ZM8.60369 15.9664C8.59155 15.9908 8.57942 16.0035 8.56783 16.0156C8.55726 16.0266 8.54714 16.0372 8.5379 16.0557C8.51469 16.1023 8.49147 16.1217 8.4489 16.145C8.42568 16.145 8.40246 16.145 8.40246 16.1217C8.42568 16.0324 8.49147 15.9431 8.58047 15.9198C8.60369 15.9237 8.60369 15.947 8.60369 15.9664ZM9.59422 19.4264C9.61357 19.4069 9.63679 19.3835 9.6484 19.3601C9.66775 19.3134 9.54778 19.3251 9.52843 19.3368C9.51088 19.3509 9.49969 19.365 9.4862 19.3821L9.48199 19.3874C9.46585 19.406 9.44696 19.4232 9.42778 19.4406C9.41477 19.4525 9.40163 19.4644 9.38912 19.477C9.33494 19.5316 9.28076 19.5861 9.22271 19.6368C9.18401 19.6718 9.30785 19.6874 9.33494 19.664C9.3659 19.6407 9.39299 19.6134 9.42008 19.5861C9.4304 19.5861 9.44072 19.5844 9.4476 19.5832L9.45233 19.5825L9.45491 19.5822C9.51906 19.5607 9.5668 19.516 9.61324 19.4726L9.62518 19.4614C9.64066 19.4459 9.62131 19.4303 9.59422 19.4264ZM9.24401 19.173C9.24357 19.1731 9.24326 19.1732 9.24304 19.1734C9.24256 19.1739 9.24256 19.1749 9.24256 19.1768C9.2188 19.1931 9.19535 19.2097 9.17194 19.2263C9.11139 19.2691 9.05116 19.3117 8.98691 19.3483C8.92546 19.3829 8.86246 19.4128 8.79889 19.4429C8.76226 19.4603 8.72545 19.4778 8.68864 19.4963C8.68864 19.4963 8.68864 19.4924 8.68477 19.4924C8.67702 19.4807 8.66153 19.4768 8.64604 19.4846C8.56082 19.5314 8.48722 19.5937 8.42137 19.6599C8.40975 19.6677 8.39813 19.6794 8.39038 19.6911L8.35552 19.7262V19.7301C8.34003 19.7457 8.32453 19.7612 8.30516 19.7846C8.30114 19.7887 8.29804 19.7927 8.29507 19.7966C8.28947 19.8039 8.2843 19.8107 8.27418 19.8158C8.25868 19.8236 8.21995 19.8236 8.22382 19.8002V19.7963C8.2122 19.8041 8.19671 19.8119 8.18508 19.8158C8.17927 19.8197 8.17346 19.8226 8.16765 19.8255C8.16184 19.8284 8.15603 19.8314 8.15022 19.8353C8.14635 19.8314 8.1386 19.8314 8.13473 19.8314C8.13086 19.8314 8.12311 19.8314 8.11923 19.8353C8.1102 19.8431 8.10116 19.8504 8.09212 19.8578C8.07404 19.8725 8.05597 19.8872 8.03789 19.9054C7.99141 19.9483 7.9488 19.995 7.90619 20.0457C7.90619 20.0457 7.90619 20.0495 7.90232 20.0495C7.90232 20.0515 7.90135 20.0525 7.90038 20.0534C7.89941 20.0544 7.89844 20.0554 7.89844 20.0573L7.8907 20.0651C7.88922 20.0666 7.8883 20.0681 7.88752 20.0694C7.88626 20.0714 7.88534 20.0729 7.88295 20.0729L7.87907 20.0768C7.8752 20.0846 7.87133 20.0924 7.86358 20.1002C7.85971 20.1041 7.85196 20.108 7.84421 20.108C7.84034 20.1041 7.83647 20.1002 7.83647 20.0963C7.83453 20.0944 7.83356 20.0924 7.83259 20.0905C7.83162 20.0885 7.83066 20.0866 7.82872 20.0846C7.82485 20.0788 7.82194 20.0729 7.81904 20.0671C7.81613 20.0612 7.81322 20.0554 7.80935 20.0495V20.0457C7.80935 20.0437 7.80838 20.0418 7.80741 20.0398C7.80645 20.0379 7.80548 20.0359 7.80548 20.034L7.8752 19.9521L7.87907 19.9483C7.88295 19.9444 7.88682 19.9395 7.89069 19.9346C7.89456 19.9298 7.89844 19.9249 7.90232 19.921C7.90813 19.9132 7.9149 19.9054 7.92168 19.8976C7.92846 19.8898 7.93524 19.882 7.94105 19.8742C7.94299 19.8703 7.94493 19.8674 7.94686 19.8645C7.9488 19.8616 7.95074 19.8586 7.95267 19.8547C7.97591 19.8236 7.99915 19.7924 8.0224 19.7573V19.7534C8.02627 19.7496 8.03014 19.7457 8.03014 19.7379C8.04176 19.7223 8.05339 19.7067 8.06113 19.6911L8.08437 19.6444V19.6405L8.08825 19.6366C8.08825 19.6346 8.08921 19.6336 8.09018 19.6327C8.09115 19.6317 8.09212 19.6307 8.09212 19.6288C8.09599 19.619 8.09986 19.6103 8.10373 19.6015C8.1076 19.5928 8.11149 19.584 8.11536 19.5742V19.5703L8.11923 19.5547C8.12117 19.5509 8.12214 19.547 8.12311 19.5431C8.12408 19.5392 8.12505 19.5353 8.12698 19.5314V19.5275C8.12892 19.5216 8.12989 19.5158 8.13086 19.5099C8.13182 19.5041 8.13279 19.4983 8.13473 19.4924C8.13473 19.4885 8.13473 19.4807 8.13086 19.4768C8.1541 19.434 8.18508 19.395 8.21995 19.356C8.21801 19.356 8.21607 19.357 8.21414 19.358C8.21303 19.3586 8.21191 19.3591 8.2108 19.3595C8.20998 19.3598 8.20915 19.3599 8.20833 19.3599C8.19109 19.3708 8.17624 19.3852 8.16113 19.4C8.14908 19.4117 8.13686 19.4236 8.12311 19.434C8.09987 19.4535 8.05338 19.4223 8.08437 19.3989C8.10374 19.3833 8.11923 19.3677 8.13472 19.3522C8.13472 19.3522 8.13473 19.3483 8.1386 19.3483C8.15404 19.3343 8.16887 19.3184 8.18381 19.3025C8.20635 19.2784 8.22919 19.254 8.25481 19.2353C8.28192 19.2158 8.30129 19.2002 8.32453 19.1807C8.3284 19.1768 8.33228 19.1729 8.33615 19.1729C8.35165 19.1535 8.36714 19.134 8.38651 19.1145C8.38651 19.1145 8.39038 19.1145 8.39038 19.1106C8.5234 18.9816 8.71032 18.9361 8.90111 18.8896C9.02144 18.8603 9.14332 18.8307 9.25418 18.7794C9.3168 18.7534 9.38663 18.7636 9.45564 18.7738C9.51044 18.7818 9.5647 18.7898 9.61442 18.7794C9.68027 18.7794 9.74999 18.7794 9.81584 18.8262C9.66268 18.9077 9.5165 19.001 9.37189 19.0933C9.33002 19.12 9.28817 19.1467 9.24643 19.1729C9.24535 19.1729 9.24457 19.1729 9.24401 19.173ZM9.72805 17.5851C9.70992 17.5872 9.69817 17.5885 9.70824 17.5986C9.77409 17.6649 9.90967 17.6415 10.0026 17.5909C10.0685 17.5441 10.1382 17.5441 10.2273 17.5441C10.2505 17.5441 10.2505 17.5012 10.2505 17.4779C10.3164 17.5012 10.3629 17.5012 10.4287 17.5012C10.9671 17.3883 11.4862 17.2753 11.982 17.0259C11.4803 16.6383 10.8618 16.4656 10.256 16.2965C10.1555 16.2684 10.0554 16.2405 9.95615 16.2116C9.97796 16.2116 9.99976 16.2189 10.0217 16.2262C10.066 16.241 10.1109 16.2559 10.1576 16.2116C10.0961 16.1626 10.0277 16.1532 9.95993 16.144C9.90384 16.1363 9.8482 16.1286 9.79733 16.0987C9.80264 16.0987 9.80895 16.0999 9.81582 16.1012C9.83902 16.1057 9.86849 16.1114 9.88642 16.0753C9.76876 16.0161 9.6511 15.996 9.53232 15.9757C9.47123 15.9653 9.40984 15.9548 9.348 15.9389C9.46034 15.9155 9.53006 15.8259 9.53006 15.7129C9.53006 15.6896 9.48358 15.6896 9.46034 15.6896C9.19306 15.8259 9.01101 16.0753 8.89867 16.3675C8.99995 16.4271 9.10909 16.4202 9.21607 16.4134C9.27686 16.4096 9.33694 16.4058 9.39449 16.4142C9.34369 16.4625 9.27029 16.4756 9.19974 16.4882C9.17344 16.4929 9.14753 16.4975 9.12334 16.5038C9.05361 16.5194 8.98776 16.5701 9.01101 16.6168C9.0265 16.6363 9.04199 16.6441 9.06136 16.648C9.01101 16.6636 8.96452 16.687 8.92191 16.7298C8.98568 16.78 9.05144 16.7703 9.11634 16.7608C9.14211 16.757 9.16774 16.7532 9.19306 16.7532C9.19306 16.7815 9.21164 16.7911 9.23095 16.8011C9.24088 16.8062 9.25102 16.8115 9.25891 16.8194C9.14658 16.8623 9.05749 16.9558 9.03425 17.022C9.00648 17.0895 8.95522 17.1334 8.9044 17.1768C8.87015 17.2062 8.8361 17.2353 8.80958 17.2714V17.3415C8.73475 17.4078 8.65784 17.4671 8.58199 17.5255C8.42617 17.6455 8.27479 17.7621 8.15495 17.9298C8.17819 17.9298 8.17819 17.9532 8.17819 17.9766C8.15676 18.0089 8.12627 18.0313 8.09735 18.0525C8.06355 18.0774 8.0319 18.1006 8.01938 18.1363C8.01938 18.1597 8.01938 18.1831 8.04262 18.1831C8.18476 18.1361 8.30774 18.057 8.42831 17.9794C8.53773 17.9091 8.64515 17.84 8.7631 17.7973C8.85949 17.7742 8.94341 17.7305 9.02529 17.6878C9.09477 17.6516 9.16277 17.6162 9.23567 17.5947C9.29184 17.5831 9.35381 17.5665 9.41579 17.5499C9.47777 17.5334 9.53974 17.5168 9.59591 17.5051C9.59591 17.5285 9.59591 17.5519 9.61915 17.5519H9.79733C9.78636 17.5784 9.75176 17.5824 9.72805 17.5851Z" fill="#000091"/>
<path d="M33.0001 9H20.0967C20.0967 9 20.1201 9.0039 20.2176 9.05462C20.3229 9.10923 20.4594 9.18336 20.5413 9.22627C20.7091 9.31209 20.869 9.42133 20.9743 9.58908C21.0211 9.6554 21.0874 9.79194 21.0445 9.88166C20.9977 9.9948 20.9743 10.1782 20.8612 10.2211C20.7247 10.2913 20.5452 10.2913 20.3853 10.2679C20.2956 10.2679 20.2059 10.2445 20.1123 10.2211C20.4516 10.3576 20.7715 10.5176 20.9977 10.8336C21.0211 10.8804 21.1108 10.8999 21.2006 10.8999C21.224 10.8999 21.224 10.9467 21.224 10.9662C21.1771 11.013 21.1342 11.0364 21.1576 11.1027H21.224C21.3371 11.0559 21.3137 10.8296 21.4736 10.8999C21.5867 10.9662 21.6335 11.1261 21.5633 11.2393C21.4736 11.329 21.3839 11.3992 21.2903 11.4655C21.2669 11.5124 21.2669 11.5787 21.2903 11.6255C21.3566 11.7152 21.38 11.8049 21.4034 11.8986C21.4736 12.0585 21.4931 12.238 21.5633 12.3979C21.653 12.7373 21.7427 13.0767 21.7232 13.42C21.7232 13.5995 21.6335 13.7594 21.6998 13.9428C21.7466 14.1222 21.8598 14.2588 21.9495 14.4187C22.0392 14.5553 22.1289 14.645 22.1991 14.7815C22.3356 15.0078 22.5853 15.2341 22.4722 15.5072C22.4059 15.6671 22.1562 15.6437 21.9963 15.7334C21.8598 15.8466 21.9729 16.0299 22.0431 16.143C22.1562 16.3459 21.9066 16.4824 21.7466 16.5527C21.7935 16.6229 21.8832 16.5995 21.9066 16.6424C21.93 16.7555 22.0431 16.8218 21.9729 16.9389C21.8832 17.0754 21.6101 17.1417 21.7466 17.3485C21.8364 17.5085 21.7779 17.684 21.7232 17.8479C21.6569 18.0507 21.4736 18.1404 21.3137 18.1873C21.1771 18.2341 21.0172 18.2341 20.8846 18.2107C20.8378 18.1873 20.7949 18.1638 20.7481 18.1638C20.3619 18.117 19.9757 18.0078 19.5935 18.0078C19.4804 18.0312 19.3672 18.0507 19.2775 18.0975C19.1761 18.1717 19.0825 18.2536 19.0045 18.3394C19.0045 18.3394 19.0045 18.3394 19.0006 18.3433C18.985 18.3628 18.9655 18.3784 18.9499 18.3979C18.9421 18.4096 18.9304 18.4213 18.9226 18.433C18.9148 18.4408 18.9109 18.4486 18.9031 18.4564C18.8368 18.5384 18.7782 18.6281 18.7236 18.7178C18.7197 18.7256 18.7158 18.7295 18.7119 18.7334C18.708 18.7451 18.7002 18.7529 18.6924 18.7646C18.6183 18.9012 18.5637 19.0416 18.5208 19.1821C18.3648 19.7009 18.435 20.1456 18.5442 20.2549C18.5754 20.2861 19.2931 20.5085 19.7924 20.7308C20.0265 20.8362 20.1903 20.9142 20.3268 21H32.9962V9H33.0001Z" fill="#E1000F"/>
<path d="M20.8631 13.3752C20.9526 13.3985 21.0888 13.3985 21.0888 13.4453C21.0421 13.6245 20.7736 13.6713 20.6375 13.8544H20.5674C20.5013 13.9011 20.5208 14.0141 20.4546 14.0141C20.3885 13.9907 20.3185 14.0141 20.2523 14.0375C20.3418 14.1271 20.4546 14.1972 20.5908 14.1739C20.6141 14.1739 20.6569 14.2206 20.6569 14.2635C20.6569 14.2635 20.6803 14.2635 20.7036 14.2401C20.727 14.2401 20.7503 14.2401 20.7503 14.2635V14.3531C20.6842 14.4427 20.5674 14.3998 20.478 14.4193C20.6608 14.4661 20.8398 14.4661 20.9993 14.4193C21.1355 14.3726 20.9993 14.1466 21.0888 14.0336C21.0421 14.0336 21.0888 13.9635 21.0421 13.9635C21.0888 13.9167 21.1316 13.8505 21.1782 13.8271C21.2249 13.8271 21.2911 13.8037 21.3144 13.757C21.3144 13.7102 21.2249 13.6907 21.2444 13.644C21.3806 13.5544 21.4934 13.418 21.4467 13.2817C21.4233 13.2115 21.2444 13.2115 21.1316 13.1687C21.0187 13.1258 20.8826 13.1687 20.7464 13.192C20.6336 13.192 20.5208 13.2622 20.4079 13.2817C20.2484 13.3284 20.1123 13.418 19.98 13.5076C20.1395 13.4414 20.2951 13.418 20.478 13.3713C20.6141 13.3752 20.727 13.344 20.8631 13.3752" fill="#808080"/>
<path d="M1.236 36H2.94V29.976L4.812 33.12H6.012L7.884 29.976V36H9.588V27.6H7.464L5.412 31.128L3.36 27.6H1.236V36ZM12.1124 36H13.8164V27.6H12.1124V36ZM16.3443 36H18.0483V29.928L21.8043 36H23.9883V27.6H22.2843V33.672L18.5283 27.6H16.3443V36ZM26.5176 36H28.2216V27.6H26.5176V36ZM29.9934 34.836C30.7374 35.724 31.6854 36.24 33.1014 36.24C34.6494 36.24 35.8734 35.292 35.8974 33.708C35.8974 30.828 32.0814 31.26 32.0814 29.736C32.0814 29.232 32.4774 28.848 33.0774 28.848C33.7134 28.848 34.2654 29.268 34.7574 29.904L36.0054 28.776C35.2854 27.924 34.3254 27.36 33.0654 27.36C31.4574 27.36 30.3534 28.464 30.3534 29.796C30.3534 32.64 34.1694 32.22 34.1694 33.768C34.1694 34.368 33.7614 34.728 33.0894 34.728C32.4054 34.728 31.7334 34.344 31.2294 33.696L29.9934 34.836ZM36.9415 29.148H39.5335V36H41.2375V29.148H43.8295V27.6H36.9415V29.148ZM47.1982 26.88H48.7582L47.4022 25.26H45.6502L47.1982 26.88ZM45.5062 36H50.4022V34.584H47.2102V32.424H49.9222V31.008H47.2102V29.016H50.4022V27.6H45.5062V36ZM52.5622 36H54.2662V32.604H55.1422L57.3862 36H59.3902L56.7622 32.28C57.6262 31.884 58.1182 31.128 58.1182 30.108C58.1182 28.548 56.9782 27.6 55.1302 27.6H52.5622V36ZM55.2262 29.016C55.9462 29.016 56.3662 29.448 56.3662 30.084C56.3662 30.768 55.9462 31.188 55.2262 31.188H54.2662V29.016H55.2262ZM60.6496 36H65.5456V34.584H62.3536V32.424H65.0656V31.008H62.3536V29.016H65.5456V27.6H60.6496V36ZM71.0001 36H74.3001C76.9641 36 78.7641 34.068 78.7641 31.8C78.7641 29.532 76.9641 27.6 74.3001 27.6H71.0001V36ZM74.3241 29.148C75.8841 29.148 77.0121 30.3 77.0121 31.8C77.0121 33.288 75.8841 34.452 74.3241 34.452H72.7041V29.148H74.3241ZM80.5874 36H85.4834V34.584H82.2914V32.424H85.0034V31.008H82.2914V29.016H85.4834V27.6H80.5874V36ZM90.9379 36H95.8339V34.452H92.6419V27.6H90.9379V36ZM97.8312 31.056L98.0112 27.6H96.3072L96.4992 31.056H97.8312ZM103.274 26.88L104.834 25.26H103.082L101.726 26.88H103.274ZM100.07 36H104.966V34.584H101.774V32.424H104.486V31.008H101.774V29.016H104.966V27.6H100.07V36ZM110.682 34.644C109.098 34.644 107.97 33.408 107.97 31.8C107.97 30.192 109.098 28.956 110.682 28.956C111.642 28.956 112.398 29.424 112.878 30.108L114.222 29.064C113.454 28.044 112.206 27.36 110.682 27.36C108.03 27.36 106.218 29.4 106.218 31.8C106.218 34.2 108.03 36.24 110.682 36.24C112.206 36.24 113.454 35.568 114.222 34.524L112.878 33.492C112.398 34.176 111.642 34.644 110.682 34.644ZM119.566 27.36C116.914 27.36 115.102 29.4 115.102 31.8C115.102 34.2 116.914 36.24 119.566 36.24C122.206 36.24 124.018 34.2 124.018 31.8C124.018 29.4 122.206 27.36 119.566 27.36ZM119.566 34.644C117.982 34.644 116.854 33.408 116.854 31.8C116.854 30.192 117.982 28.956 119.566 28.956C121.138 28.956 122.266 30.192 122.266 31.8C122.266 33.408 121.138 34.644 119.566 34.644ZM125.832 36H127.536V29.928L131.292 36H133.476V27.6H131.772V33.672L128.016 27.6H125.832V36ZM139.749 27.36C137.097 27.36 135.285 29.4 135.285 31.8C135.285 34.2 137.097 36.24 139.749 36.24C142.389 36.24 144.201 34.2 144.201 31.8C144.201 29.4 142.389 27.36 139.749 27.36ZM139.749 34.644C138.165 34.644 137.037 33.408 137.037 31.8C137.037 30.192 138.165 28.956 139.749 28.956C141.321 28.956 142.449 30.192 142.449 31.8C142.449 33.408 141.321 34.644 139.749 34.644ZM146.014 36H147.718V29.976L149.59 33.12H150.79L152.662 29.976V36H154.366V27.6H152.242L150.19 31.128L148.138 27.6H146.014V36ZM156.891 36H158.595V27.6H156.891V36ZM161.122 36H166.018V34.584H162.826V32.424H165.538V31.008H162.826V29.016H166.018V27.6H161.122V36ZM168.75 37.92L170.142 34.332H168.426L167.334 37.92H168.75ZM174.943 36H178.243C180.907 36 182.707 34.068 182.707 31.8C182.707 29.532 180.907 27.6 178.243 27.6H174.943V36ZM178.267 29.148C179.827 29.148 180.955 30.3 180.955 31.8C180.955 33.288 179.827 34.452 178.267 34.452H176.647V29.148H178.267ZM184.53 36H189.426V34.584H186.234V32.424H188.946V31.008H186.234V29.016H189.426V27.6H184.53V36ZM190.83 34.836C191.574 35.724 192.522 36.24 193.938 36.24C195.486 36.24 196.71 35.292 196.734 33.708C196.734 30.828 192.918 31.26 192.918 29.736C192.918 29.232 193.314 28.848 193.914 28.848C194.55 28.848 195.102 29.268 195.594 29.904L196.842 28.776C196.122 27.924 195.162 27.36 193.902 27.36C192.294 27.36 191.19 28.464 191.19 29.796C191.19 32.64 195.006 32.22 195.006 33.768C195.006 34.368 194.598 34.728 193.926 34.728C193.242 34.728 192.57 34.344 192.066 33.696L190.83 34.836ZM201.996 36H203.7V32.424H206.412V31.008H203.7V29.016H206.892V27.6H201.996V36ZM208.571 36H210.275V27.6H208.571V36ZM212.803 36H214.507V29.928L218.263 36H220.447V27.6H218.743V33.672L214.987 27.6H212.803V36ZM221.92 36H223.732L224.536 33.816H227.896L228.7 36H230.512L227.332 27.6H225.1L221.92 36ZM225.064 32.364L226.216 29.208L227.368 32.364H225.064ZM231.989 36H233.693V29.928L237.449 36H239.633V27.6H237.929V33.672L234.173 27.6H231.989V36ZM245.907 34.644C244.323 34.644 243.195 33.408 243.195 31.8C243.195 30.192 244.323 28.956 245.907 28.956C246.867 28.956 247.623 29.424 248.103 30.108L249.447 29.064C248.679 28.044 247.431 27.36 245.907 27.36C243.255 27.36 241.443 29.4 241.443 31.8C241.443 34.2 243.255 36.24 245.907 36.24C247.431 36.24 248.679 35.568 249.447 34.524L248.103 33.492C247.623 34.176 246.867 34.644 245.907 34.644ZM251.106 36H256.002V34.584H252.81V32.424H255.522V31.008H252.81V29.016H256.002V27.6H251.106V36ZM257.406 34.836C258.15 35.724 259.098 36.24 260.514 36.24C262.062 36.24 263.286 35.292 263.31 33.708C263.31 30.828 259.494 31.26 259.494 29.736C259.494 29.232 259.89 28.848 260.49 28.848C261.126 28.848 261.678 29.268 262.17 29.904L263.418 28.776C262.698 27.924 261.738 27.36 260.478 27.36C258.87 27.36 257.766 28.464 257.766 29.796C257.766 32.64 261.582 32.22 261.582 33.768C261.582 34.368 261.174 34.728 260.502 34.728C259.818 34.728 259.146 34.344 258.642 33.696L257.406 34.836ZM268.571 36H273.467V34.584H270.275V32.424H272.987V31.008H270.275V29.016H273.467V27.6H268.571V36ZM274.939 29.148H277.531V36H279.235V29.148H281.827V27.6H274.939V29.148ZM286.798 36H290.098C292.762 36 294.562 34.068 294.562 31.8C294.562 29.532 292.762 27.6 290.098 27.6H286.798V36ZM290.122 29.148C291.682 29.148 292.81 30.3 292.81 31.8C292.81 33.288 291.682 34.452 290.122 34.452H288.502V29.148H290.122ZM296.385 36H301.281V34.584H298.089V32.424H300.801V31.008H298.089V29.016H301.281V27.6H296.385V36ZM306.735 36H311.631V34.452H308.439V27.6H306.735V36ZM312.618 36H314.43L315.234 33.816H318.594L319.398 36H321.21L318.03 27.6H315.798L312.618 36ZM315.762 32.364L316.914 29.208L318.066 32.364H315.762ZM325.226 34.836C325.97 35.724 326.918 36.24 328.334 36.24C329.882 36.24 331.106 35.292 331.13 33.708C331.13 30.828 327.314 31.26 327.314 29.736C327.314 29.232 327.71 28.848 328.31 28.848C328.946 28.848 329.498 29.268 329.99 29.904L331.238 28.776C330.518 27.924 329.558 27.36 328.298 27.36C326.69 27.36 325.586 28.464 325.586 29.796C325.586 32.64 329.402 32.22 329.402 33.768C329.402 34.368 328.994 34.728 328.322 34.728C327.638 34.728 326.966 34.344 326.462 33.696L325.226 34.836ZM336.735 27.36C334.083 27.36 332.271 29.4 332.271 31.8C332.271 34.2 334.083 36.24 336.735 36.24C339.375 36.24 341.187 34.2 341.187 31.8C341.187 29.4 339.375 27.36 336.735 27.36ZM336.735 34.644C335.151 34.644 334.023 33.408 334.023 31.8C334.023 30.192 335.151 28.956 336.735 28.956C338.307 28.956 339.435 30.192 339.435 31.8C339.435 33.408 338.307 34.644 336.735 34.644ZM347.954 32.856C347.954 33.984 347.306 34.644 346.262 34.644C345.194 34.644 344.558 33.984 344.558 32.856V27.6H342.854V32.712C342.854 34.92 344.15 36.24 346.25 36.24C348.362 36.24 349.658 34.92 349.658 32.712V27.6H347.954V32.856ZM350.899 27.6L354.079 36H356.311L359.491 27.6H357.679L355.195 34.164L352.711 27.6H350.899ZM360.968 36H365.864V34.584H362.672V32.424H365.384V31.008H362.672V29.016H365.864V27.6H360.968V36ZM368.024 36H369.728V32.604H370.604L372.848 36H374.852L372.224 32.28C373.088 31.884 373.58 31.128 373.58 30.108C373.58 28.548 372.44 27.6 370.592 27.6H368.024V36ZM370.688 29.016C371.408 29.016 371.828 29.448 371.828 30.084C371.828 30.768 371.408 31.188 370.688 31.188H369.728V29.016H370.688ZM375.419 36H377.231L378.035 33.816H381.395L382.199 36H384.011L380.831 27.6H378.599L375.419 36ZM378.563 32.364L379.715 29.208L380.867 32.364H378.563ZM385.488 36H387.192V27.6H385.488V36ZM389.72 36H391.424V29.928L395.18 36H397.364V27.6H395.66V33.672L391.904 27.6H389.72V36ZM399.893 36H404.789V34.584H401.597V32.424H404.309V31.008H401.597V29.016H404.789V27.6H399.893V36ZM406.261 29.148H408.853V36H410.557V29.148H413.149V27.6H406.261V29.148ZM418.029 26.88L419.589 25.26H417.837L416.481 26.88H418.029ZM414.825 36H419.721V34.584H416.529V32.424H419.241V31.008H416.529V29.016H419.721V27.6H414.825V36ZM1.236 48H2.94V39.6H1.236V48ZM5.46788 48H7.17188V41.928L10.9279 48H13.1119V39.6H11.4079V45.672L7.65188 39.6H5.46788V48ZM15.6412 48H18.9412C21.6052 48 23.4052 46.068 23.4052 43.8C23.4052 41.532 21.6052 39.6 18.9412 39.6H15.6412V48ZM18.9652 41.148C20.5252 41.148 21.6532 42.3 21.6532 43.8C21.6532 45.288 20.5252 46.452 18.9652 46.452H17.3452V41.148H18.9652ZM30.1823 44.856C30.1823 45.984 29.5343 46.644 28.4903 46.644C27.4223 46.644 26.7863 45.984 26.7863 44.856V39.6H25.0823V44.712C25.0823 46.92 26.3783 48.24 28.4783 48.24C30.5903 48.24 31.8863 46.92 31.8863 44.712V39.6H30.1823V44.856ZM33.427 46.836C34.171 47.724 35.119 48.24 36.535 48.24C38.083 48.24 39.307 47.292 39.331 45.708C39.331 42.828 35.515 43.26 35.515 41.736C35.515 41.232 35.911 40.848 36.511 40.848C37.147 40.848 37.699 41.268 38.191 41.904L39.439 40.776C38.719 39.924 37.759 39.36 36.499 39.36C34.891 39.36 33.787 40.464 33.787 41.796C33.787 44.64 37.603 44.22 37.603 45.768C37.603 46.368 37.195 46.728 36.523 46.728C35.839 46.728 35.167 46.344 34.663 45.696L33.427 46.836ZM40.3751 41.148H42.9671V48H44.6711V41.148H47.2631V39.6H40.3751V41.148ZM48.9398 48H50.6438V44.604H51.5198L53.7638 48H55.7678L53.1398 44.28C54.0038 43.884 54.4958 43.128 54.4958 42.108C54.4958 40.548 53.3558 39.6 51.5078 39.6H48.9398V48ZM51.6038 41.016C52.3238 41.016 52.7438 41.448 52.7438 42.084C52.7438 42.768 52.3238 43.188 51.6038 43.188H50.6438V41.016H51.6038ZM57.0271 48H58.7311V39.6H57.0271V48ZM61.259 48H66.155V46.584H62.963V44.424H65.675V43.008H62.963V41.016H66.155V39.6H61.259V48ZM68.3151 48H73.2111V46.452H70.0191V39.6H68.3151V48ZM74.8907 48H79.7867V46.452H76.5947V39.6H74.8907V48ZM81.4663 48H86.3623V46.584H83.1703V44.424H85.8823V43.008H83.1703V41.016H86.3623V39.6H81.4663V48ZM91.8168 48H96.7128V46.584H93.5208V44.424H96.2328V43.008H93.5208V41.016H96.7128V39.6H91.8168V48ZM98.1847 41.148H100.777V48H102.481V41.148H105.073V39.6H98.1847V41.148ZM110.044 48H111.748V41.928L115.504 48H117.688V39.6H115.984V45.672L112.228 39.6H110.044V48ZM125.077 44.856C125.077 45.984 124.429 46.644 123.385 46.644C122.317 46.644 121.681 45.984 121.681 44.856V39.6H119.977V44.712C119.977 46.92 121.273 48.24 123.373 48.24C125.485 48.24 126.781 46.92 126.781 44.712V39.6H125.077V44.856ZM129.078 48H130.782V41.976L132.654 45.12H133.854L135.726 41.976V48H137.43V39.6H135.306L133.254 43.128L131.202 39.6H129.078V48ZM143.158 38.88L144.718 37.26H142.966L141.61 38.88H143.158ZM139.954 48H144.85V46.584H141.658V44.424H144.37V43.008H141.658V41.016H144.85V39.6H139.954V48ZM147.01 48H148.714V44.604H149.59L151.834 48H153.838L151.21 44.28C152.074 43.884 152.566 43.128 152.566 42.108C152.566 40.548 151.426 39.6 149.578 39.6H147.01V48ZM149.674 41.016C150.394 41.016 150.814 41.448 150.814 42.084C150.814 42.768 150.394 43.188 149.674 43.188H148.714V41.016H149.674ZM155.098 48H156.802V39.6H155.098V48ZM166.373 47.784L165.869 47.304C166.901 46.488 167.525 45.204 167.525 43.8C167.525 41.4 165.713 39.36 163.073 39.36C160.421 39.36 158.609 41.4 158.609 43.8C158.609 46.2 160.421 48.24 163.073 48.24C163.481 48.24 163.865 48.192 164.225 48.096L165.221 48.984C166.049 49.704 166.913 50.088 167.849 50.088C168.221 50.088 168.461 50.04 168.737 49.932V48.492C168.557 48.564 168.317 48.588 168.137 48.588C167.597 48.588 167.021 48.372 166.373 47.784ZM163.073 46.644C161.489 46.644 160.361 45.408 160.361 43.8C160.361 42.192 161.489 40.956 163.073 40.956C164.645 40.956 165.773 42.192 165.773 43.8C165.773 45.408 164.645 46.644 163.073 46.644ZM174.292 44.856C174.292 45.984 173.644 46.644 172.6 46.644C171.532 46.644 170.896 45.984 170.896 44.856V39.6H169.192V44.712C169.192 46.92 170.488 48.24 172.588 48.24C174.7 48.24 175.996 46.92 175.996 44.712V39.6H174.292V44.856ZM178.293 48H183.189V46.584H179.997V44.424H182.709V43.008H179.997V41.016H183.189V39.6H178.293V48Z" fill="#161616"/>
<path fill-rule="evenodd" clip-rule="evenodd" d="M31.18 69.6137L30.0638 70.6337H29.7758L30.4359 69.4697H31.18V69.6137ZM30.3759 73.5611H30.1359C29.8358 73.9211 29.4998 74.2091 29.1757 74.2091C28.8397 74.2091 28.6717 74.0051 28.6717 73.5611C28.6717 73.3811 28.6957 73.1891 28.7317 73.0211L30.688 72.3732C31.072 71.4612 30.6159 71.0653 30.0759 71.0653C29.1517 71.0653 28.0956 72.6852 28.0956 73.9811C28.0956 74.5931 28.3836 74.929 28.8397 74.929C29.3678 74.917 29.9198 74.4011 30.3759 73.5611ZM29.7046 71.5935C29.9686 71.5935 30.1966 71.7975 30.0766 72.2655L28.8644 72.5895C29.0565 72.0135 29.4165 71.5935 29.7046 71.5935ZM25.8886 71.6172H26.5367L25.5045 74.4491C25.4085 74.6891 25.5405 74.9291 25.7925 74.9291C26.5247 74.9291 27.4008 74.3051 27.7368 73.4171H27.5568C27.2928 73.7891 26.7167 74.1971 26.2846 74.2691L27.2328 71.6172H28.2049L28.3249 71.2093H27.3768L27.7368 70.1893H27.3648L26.6927 71.2093L25.8886 71.3173V71.6172ZM24.9878 71.0779C25.1198 71.0779 25.2998 71.2219 25.2158 71.4859L24.0516 74.3058C24.3517 74.2578 24.6637 73.9698 24.8438 73.7058H25.0358C24.7597 74.4138 24.1356 74.9297 23.5956 74.9297C23.4636 74.9297 23.2715 74.7857 23.3675 74.5218L24.4477 71.7019C24.1477 71.7499 23.8356 72.0379 23.6556 72.3019H23.4756C23.7516 71.5819 24.4237 71.0779 24.9878 71.0779ZM25.3246 70.3577C25.5647 70.3577 25.7687 70.1657 25.7687 69.9137C25.7687 69.6737 25.5647 69.4697 25.3246 69.4697C25.0726 69.4697 24.8806 69.6737 24.8806 69.9137C24.8806 70.1537 25.0846 70.3577 25.3246 70.3577ZM20.0797 72.6979C20.3437 72.1219 20.2477 71.8579 20.0797 71.8579C19.9357 71.8579 19.7676 72.0139 19.5996 72.3019H19.4196C19.6956 71.6899 20.0557 71.0779 20.4517 71.0779C20.7878 71.0779 20.9078 71.4139 20.9078 71.7859V72.3139C20.9618 72.2511 21.0144 72.1894 21.0658 72.1291L21.0667 72.128L21.0675 72.1271C21.5745 71.5322 21.9617 71.0779 22.408 71.0779C22.7561 71.0779 22.9361 71.2939 22.9361 71.6179C22.9361 71.8099 22.8761 72.0499 22.7441 72.3019L21.7479 74.3058C22.048 74.2578 22.36 73.9698 22.54 73.7058H22.7201C22.444 74.4258 21.7719 74.9297 21.2079 74.9297C20.9558 74.9297 20.8118 74.6657 20.9198 74.4498L22.072 72.2299C22.204 71.9779 22.228 71.8099 22.024 71.8099C21.7479 71.8099 21.0998 72.2659 20.7518 72.6859L19.9957 74.6777C19.9117 74.8817 19.8277 74.9297 19.6356 74.9297C19.3236 74.9297 19.1676 74.7257 19.3116 74.4018L20.0797 72.6979ZM19.2987 71.9292C19.4307 71.4732 19.3587 71.0653 19.0106 71.0653C18.5766 71.0653 18.4407 71.3519 18.02 72.2389L17.9905 72.3012V71.7732C17.9905 71.4012 17.8705 71.0653 17.5344 71.0653C17.1384 71.0653 16.7783 71.6772 16.5023 72.2892H16.6823C16.8743 72.0132 17.0544 71.8452 17.1984 71.8452C17.3664 71.8452 17.4624 72.1092 17.1984 72.6852L16.4303 74.3891C16.2863 74.713 16.4423 74.917 16.7543 74.917C16.9464 74.917 17.0304 74.869 17.1144 74.665L17.8705 72.6732C18.0865 72.4092 18.2785 72.1812 18.5186 71.9292H19.2987ZM15.5064 72.2655C15.6264 71.7975 15.3984 71.5935 15.1344 71.5935C14.8463 71.5935 14.4863 72.0135 14.2942 72.5895L15.5064 72.2655ZM15.8057 73.5611H15.5657C15.2656 73.9211 14.9296 74.2091 14.6055 74.2091C14.2695 74.2091 14.1015 74.0051 14.1015 73.5611C14.1015 73.3811 14.1255 73.1891 14.1615 73.0211L16.1178 72.3732C16.5018 71.4612 16.0458 71.0653 15.5057 71.0653C14.5815 71.0653 13.5254 72.6852 13.5254 73.9811C13.5254 74.5931 13.8134 74.929 14.2695 74.929C14.7976 74.917 15.3497 74.4011 15.8057 73.5611ZM11.9665 71.6172H11.3184V71.3173L12.1225 71.2093L12.7946 70.1893H13.1666L12.8066 71.2093H13.7547L13.6347 71.6172H12.6626L11.7144 74.2691C12.1465 74.1971 12.7226 73.7891 12.9866 73.4171H13.1666C12.8306 74.3051 11.9545 74.9291 11.2224 74.9291C10.9703 74.9291 10.8383 74.6891 10.9343 74.4491L11.9665 71.6172ZM7.88648 73.8134C7.88648 72.9374 8.85862 71.7615 9.3987 71.7615C9.51871 71.7615 9.63873 71.7735 9.73475 71.8095L9.17066 73.3214C8.84662 73.7174 8.34254 74.1974 8.10251 74.1974C7.97049 74.1974 7.88648 74.0774 7.88648 73.8134ZM10.5632 70.8856L10.8632 70.9096L9.81906 73.3094C9.56702 73.8854 9.67504 74.1494 9.81906 74.1494C9.96308 74.1494 10.1431 73.9814 10.3351 73.7054H10.5152C10.2391 74.3174 9.87907 74.9293 9.48301 74.9293C9.14696 74.9293 8.94293 74.5694 9.00294 73.9214L9.02694 73.6934L8.96158 73.7847C8.53167 74.3856 8.14265 74.9293 7.74276 74.9293C7.39471 74.9293 7.21468 74.7134 7.21468 74.3894C7.21468 72.9975 8.7389 71.2216 10.1671 71.2216H10.2271L10.5632 70.8856ZM7.81402 71.9292C7.94604 71.4732 7.87403 71.0653 7.52598 71.0653C7.09192 71.0653 6.956 71.3519 6.53537 72.2389L6.50583 72.3012V71.7732C6.50583 71.4012 6.38581 71.0653 6.04976 71.0653C5.65371 71.0653 5.29365 71.6772 5.01761 72.2892H5.19764C5.38967 72.0132 5.56969 71.8452 5.70171 71.8452C5.86974 71.8452 5.96575 72.1092 5.70171 72.6852L4.9336 74.4011C4.78958 74.725 4.9456 74.929 5.25765 74.929C5.44968 74.929 5.53369 74.881 5.6177 74.677L6.37381 72.6852C6.58984 72.4212 6.78187 72.1932 7.0219 71.9412H7.81402V71.9292ZM2.86842 74.5683L2.79641 74.7843H0L0.0720104 74.5563C0.936136 74.4003 1.08016 74.3283 1.44021 73.3564L2.22032 71.2685C2.56837 70.2966 2.49636 70.2246 1.74025 70.0686L1.81226 69.8526H5.44879L5.23276 71.0165H4.96872C4.96872 70.3206 4.89671 70.1406 4.23661 70.1406H4.06859C3.4205 70.1406 3.33648 70.2366 3.15646 70.7405L2.64038 72.1445H3.39649C3.90056 72.1445 4.09259 71.8325 4.32063 71.4245H4.58466L3.96057 73.1284H3.69654C3.75654 72.6124 3.75654 72.4084 3.28848 72.4084H2.53237L2.18432 73.3684C1.80809 74.3676 1.9156 74.3879 2.81149 74.5575C2.83013 74.5611 2.8491 74.5647 2.86842 74.5683Z" fill="black"/>
<path fill-rule="evenodd" clip-rule="evenodd" d="M5.24476 60.4341L4.12857 61.2385V61.2505H3.84052L4.50063 60.29H5.24476V60.4341ZM13.0472 66.0648L14.8355 61.3105L14.7755 61.2384L13.5393 61.3825V61.5266L13.7793 61.7066C13.9843 61.8661 13.93 62.0147 13.76 62.4805L13.7313 62.5591L12.3631 66.2089C12.2551 66.425 12.3991 66.6891 12.6511 66.6891C13.2152 66.6891 13.8153 66.1728 14.0914 65.4645H13.9114C13.7193 65.7286 13.3353 66.0168 13.0472 66.0648ZM21.2438 62.403L22.36 61.3825V61.2384H21.6159L20.9558 62.403H21.2438ZM21.315 65.3204H21.5551C21.111 66.1728 20.5589 66.6891 20.0308 66.6891C19.5747 66.6891 19.2867 66.3529 19.2867 65.7406C19.2867 64.444 20.3429 62.8232 21.267 62.8232C21.7951 62.8232 22.2632 63.2194 21.8791 64.1318L19.9108 64.7801C19.8748 64.9482 19.8508 65.1403 19.8508 65.3204C19.8508 65.7646 20.0188 65.9687 20.3549 65.9687C20.6789 65.9687 21.015 65.6806 21.315 65.3204ZM21.2544 64.0238C21.3745 63.5676 21.1464 63.3635 20.8824 63.3635C20.6063 63.3635 20.2463 63.7837 20.0422 64.348L21.2544 64.0238ZM17.7258 63.3872H17.0777V63.0871L17.8818 62.979L18.554 61.9585H18.926L18.566 62.979H19.5141L19.3941 63.3872H18.4219L17.4738 66.0405C17.9058 65.9685 18.4819 65.5603 18.746 65.1881H18.926C18.59 66.0765 17.7138 66.7008 16.9817 66.7008C16.7296 66.7008 16.5976 66.4607 16.6936 66.2206L17.7258 63.3872ZM16.4055 63.2431C16.4775 62.979 16.3095 62.8349 16.1655 62.8349C15.6014 62.8349 14.9292 63.3512 14.6532 64.0595H14.8332C15.0133 63.7954 15.3253 63.5072 15.6254 63.4592L14.5452 66.2806C14.4492 66.5447 14.6412 66.6888 14.7732 66.6888C15.3133 66.6888 15.9374 66.1726 16.2135 65.4642H16.0334C15.8534 65.7283 15.5413 66.0165 15.2413 66.0645L16.4055 63.2431ZM16.9585 61.6826C16.9585 61.9228 16.7544 62.1269 16.5144 62.1269C16.2744 62.1269 16.0703 61.9228 16.0703 61.6826C16.0703 61.4425 16.2624 61.2384 16.5144 61.2384C16.7544 61.2384 16.9585 61.4425 16.9585 61.6826ZM10.8987 63.5315C10.3586 63.5315 9.38641 64.7081 9.38641 65.5846C9.38641 65.8487 9.47043 65.9687 9.61445 65.9687C9.84249 65.9687 10.3466 65.4885 10.6706 65.0923L11.2347 63.5796C11.1267 63.5435 11.0187 63.5315 10.8987 63.5315ZM12.3632 62.6791L12.0632 62.6551L11.7271 62.9913H11.6671C10.2389 62.9913 8.71459 64.7682 8.71459 66.1609C8.71459 66.485 8.89463 66.7011 9.24269 66.7011C9.64259 66.7011 10.0316 66.1571 10.4616 65.5558L10.5269 65.4645L10.5029 65.6926C10.4429 66.3409 10.6469 66.7011 10.983 66.7011C11.3791 66.7011 11.7391 66.0888 12.0152 65.4765H11.8351C11.6431 65.7527 11.4631 65.9207 11.3191 65.9207C11.175 65.9207 11.067 65.6566 11.3191 65.0803L12.3632 62.6791ZM6.3135 66.5692C5.79741 66.7733 5.43734 67.0134 5.43734 67.3856C5.43734 67.7337 5.7614 67.8778 6.43352 67.8778C7.33368 67.8778 7.82576 67.6137 7.82576 67.2655C7.82576 67.1094 7.62173 67.0374 7.08163 66.8573C6.73357 66.7493 6.48153 66.6532 6.3135 66.5692ZM6.91282 65.0924C6.67277 65.0924 6.58876 64.8883 6.58876 64.6722C6.58876 63.9758 6.92482 63.1114 7.46491 63.1114C7.70495 63.1114 7.78897 63.3155 7.78897 63.5316C7.77697 64.24 7.44091 65.0924 6.91282 65.0924ZM7.3701 66.2209C8.03022 66.425 8.43829 66.581 8.43829 67.0373C8.43829 67.6255 7.3581 68.3219 6.04987 68.3099C5.29374 68.3099 4.64563 68.1058 4.64563 67.6135C4.64563 67.1453 5.0777 66.7611 6.13389 66.449C5.98986 66.3529 5.92985 66.2329 5.92985 66.0648C5.92985 65.7766 6.1939 65.5485 6.64998 65.3324C6.2059 65.2724 5.91785 64.9362 5.91785 64.444C5.91785 63.6876 6.54196 62.8232 7.52613 62.8232C7.73017 62.8232 7.9102 62.8712 8.05422 62.9673H9.13441L9.01439 63.3755H8.37828C8.41429 63.4835 8.43829 63.6036 8.43829 63.7356C8.43829 64.468 7.85019 65.3084 6.91402 65.3564C6.67398 65.4885 6.55396 65.6686 6.55396 65.8127C6.55396 65.9822 6.75029 66.0395 7.1842 66.1662C7.24193 66.183 7.30387 66.2011 7.3701 66.2209ZM3.56462 64.1679C4.03271 64.1679 4.04471 64.372 3.9727 64.8883H4.23674L4.86085 63.1834H4.59681C4.36877 63.5916 4.17673 63.9038 3.67264 63.9038H2.64046L3.14455 62.4991C3.32458 61.9949 3.4086 61.8988 4.05671 61.8988H4.51279C5.17291 61.8988 5.24492 62.0789 5.24492 62.7752H5.50896L5.725 61.6107H1.81232L1.7403 61.8268C2.49644 61.9829 2.56845 62.0549 2.22039 63.0274L1.44025 65.1284C1.08019 66.1009 0.936164 66.1729 0.0600105 66.329L0 66.5571H4.34476L5.1249 65.3205H4.82484C4.32076 65.8127 3.81667 66.269 2.8325 66.269C1.74998 66.269 1.76926 66.216 2.09407 65.3234C2.11497 65.266 2.13715 65.205 2.16038 65.1404L2.52044 64.1799H3.56462V64.1679Z" fill="black"/>
<path fill-rule="evenodd" clip-rule="evenodd" d="M7.14964 53.8876C7.3896 53.8876 7.59356 53.6837 7.59356 53.4438C7.59356 53.2039 7.3896 53 7.14964 53C6.89769 53 6.70573 53.2039 6.70573 53.4438C6.70573 53.6957 6.89769 53.8876 7.14964 53.8876ZM10.7022 55.3986C10.7022 54.8229 10.5583 54.607 10.1503 54.607C9.64644 54.607 9.17853 55.1467 8.71062 55.7944L9.71843 53.0956L9.65844 53.0117L8.42268 53.1556V53.2996L8.66263 53.4795C8.87155 53.6419 8.81099 53.8044 8.63302 54.2818L8.61464 54.3311L7.52285 57.1858C7.42687 57.4257 7.31889 57.7136 7.31889 57.7856C7.31889 58.1214 7.7748 58.4453 8.19472 58.4453C9.13054 58.4573 10.7022 56.73 10.7022 55.3986ZM21.1042 54.1752L22.22 53.1556V53.0117H21.4761L20.8163 54.1752H21.1042ZM21.1765 57.0899H21.4164C20.9605 57.9415 20.4086 58.4573 19.8807 58.4453C19.4248 58.4453 19.1369 58.1214 19.1369 57.5097C19.1369 56.2143 20.1927 54.595 21.1165 54.595C21.6444 54.595 22.1123 54.9908 21.7284 55.9024L19.7727 56.5501C19.7368 56.7181 19.7128 56.91 19.7128 57.0899C19.7128 57.5337 19.8807 57.7376 20.2167 57.7376C20.5406 57.7376 20.8765 57.4497 21.1765 57.0899ZM21.1153 55.7945C21.2353 55.3387 21.0073 55.1348 20.7434 55.1348C20.4555 55.1348 20.0955 55.5546 19.9036 56.1184L21.1153 55.7945ZM17.5747 55.1595H16.9268V54.8596L17.7306 54.7516L18.4025 53.7321H18.7744L18.4145 54.7516H19.3623L19.2423 55.1595H18.2705L17.3227 57.8103C17.7546 57.7383 18.3305 57.3305 18.5945 56.9587H18.7744C18.4385 57.8463 17.5627 58.47 16.8308 58.47C16.5789 58.47 16.4469 58.2301 16.5429 57.9902L17.5747 55.1595ZM16.5931 55.4713C16.7251 55.0155 16.6531 54.6077 16.3052 54.6077C15.8713 54.6077 15.7354 54.8942 15.3149 55.7809L15.2854 55.8431V55.3154C15.2854 54.9435 15.1654 54.6077 14.8295 54.6077C14.4336 54.6077 14.0736 55.2194 13.7977 55.8311H13.9776C14.1696 55.5553 14.3496 55.3873 14.4815 55.3873C14.6495 55.3873 14.7455 55.6512 14.4815 56.227L13.7137 57.9302C13.5697 58.2541 13.7257 58.458 14.0376 58.458C14.2296 58.458 14.3136 58.41 14.3976 58.2061L15.1534 56.215C15.3694 55.9511 15.5613 55.7232 15.8013 55.4713H16.5931ZM12.7902 55.7945C12.9101 55.3387 12.6822 55.1348 12.4182 55.1348C12.1303 55.1348 11.7823 55.5546 11.5784 56.1184L12.7902 55.7945ZM13.0893 57.0899H12.8494C12.5495 57.4497 12.2135 57.7376 11.8896 57.7376C11.5536 57.7376 11.3857 57.5337 11.3857 57.0899C11.3857 56.91 11.4097 56.7181 11.4457 56.5501L13.4013 55.9024C13.7852 54.9908 13.3293 54.595 12.7894 54.595C11.8656 54.595 10.8098 56.2143 10.8098 57.5097C10.8098 58.1214 11.0977 58.4453 11.5536 58.4453C12.0815 58.4573 12.6334 57.9415 13.0893 57.0899ZM8.05122 57.5461C8.05122 57.702 8.32717 57.882 8.51913 57.882C9.29898 57.882 10.0308 56.4786 10.0188 55.6989C10.0188 55.435 9.88686 55.3271 9.7069 55.3271C9.41896 55.3271 8.89106 55.7589 8.55512 56.1667L8.24318 57.0064C8.1352 57.2822 8.05122 57.4981 8.05122 57.5461ZM6.79168 54.6077C6.93565 54.6077 7.10362 54.7516 7.03163 55.0155L5.87986 57.8343C6.1798 57.7863 6.49174 57.4984 6.6717 57.2345H6.85167C6.57572 57.9422 5.95184 58.458 5.41195 58.458C5.26798 58.458 5.07601 58.314 5.172 58.0502L6.25179 55.2314C5.95184 55.2794 5.63991 55.5673 5.45994 55.8311H5.27998C5.55592 55.1235 6.22779 54.6077 6.79168 54.6077ZM1.81165 53.3602H4.39115L4.31916 53.5881C3.44333 53.744 3.29936 53.816 2.93943 54.7876L2.17158 56.8986C1.79965 57.9062 1.89563 58.0261 2.5555 58.0261C3.37077 58.0261 3.90535 57.4337 4.37213 56.9164C4.40681 56.878 4.44111 56.84 4.47513 56.8027H4.77507L3.92324 58.314H0L0.071986 58.0981C0.935818 57.9422 1.07979 57.8702 1.43972 56.8986L2.21957 54.7756C2.5675 53.804 2.49552 53.732 1.73966 53.5761L1.81165 53.3602Z" fill="black"/>
</svg>
